Varta-Bold.ufo
<glyph name="ampersand" format="1">
  <advance width="1292"/>
  <unicode hex="0026"/>
  <outline>
    <contour>
      <point x="1204" y="-25" type="curve" name="hr01"/>
      <point x="1260" y="155" type="line"/>
      <point x="1188" y="171"/>
      <point x="1105" y="211"/>
      <point x="1016" y="267" type="curve"/>
      <point x="1120" y="407"/>
      <point x="1195" y="565"/>
      <point x="1246" y="736" type="curve"/>
      <point x="1044" y="736" type="line"/>
      <point x="1006" y="593"/>
      <point x="946" y="470"/>
      <point x="869" y="368" type="curve"/>
      <point x="753" y="454"/>
      <point x="630" y="580"/>
      <point x="558" y="695" type="curve"/>
      <point x="704" y="797"/>
      <point x="851" y="900"/>
      <point x="851" y="1088" type="curve" smooth="yes"/>
      <point x="851" y="1256"/>
      <point x="738" y="1365"/>
      <point x="558" y="1365" type="curve" smooth="yes"/>
      <point x="358" y="1365"/>
      <point x="231" y="1223"/>
      <point x="231" y="1040" type="curve" name="hr02" smooth="yes"/>
      <point x="231" y="947"/>
      <point x="259" y="838"/>
      <point x="325" y="729" type="curve"/>
      <point x="191" y="638"/>
      <point x="60" y="544"/>
      <point x="60" y="351" type="curve" name="hr03" smooth="yes"/>
      <point x="60" y="139"/>
      <point x="221" y="-25"/>
      <point x="483" y="-25" type="curve" smooth="yes"/>
      <point x="654" y="-25"/>
      <point x="781" y="32"/>
      <point x="886" y="121" type="curve"/>
      <point x="998" y="48"/>
      <point x="1104" y="0"/>
    </contour>
    <contour>
      <point x="474" y="824" type="curve" name="hr04"/>
      <point x="440" y="896"/>
      <point x="415" y="973"/>
      <point x="415" y="1037" type="curve" smooth="yes"/>
      <point x="415" y="1140"/>
      <point x="468" y="1214"/>
      <point x="556" y="1214" type="curve" smooth="yes"/>
      <point x="635" y="1214"/>
      <point x="678" y="1156"/>
      <point x="678" y="1084" type="curve" smooth="yes"/>
      <point x="678" y="966"/>
      <point x="587" y="897"/>
    </contour>
    <contour>
      <point x="510" y="147" type="curve" smooth="yes"/>
      <point x="373" y="147"/>
      <point x="270" y="234"/>
      <point x="270" y="364" type="curve" name="hr05" smooth="yes"/>
      <point x="270" y="464"/>
      <point x="327" y="527"/>
      <point x="408" y="589" type="curve"/>
      <point x="496" y="463"/>
      <point x="615" y="336"/>
      <point x="737" y="232" type="curve"/>
      <point x="677" y="178"/>
      <point x="596" y="147"/>
    </contour>
  </outline>
</glyph>
<glyph name="seven" format="1">
  <advance width="1042"/>
  <unicode hex="0037"/>
  <outline>
    <contour>
      <point x="90" y="1156" type="line" name="hr00"/>
      <point x="715" y="1156" type="line"/>
      <point x="462" y="805"/>
      <point x="367" y="469"/>
      <point x="348" y="0" type="curve"/>
      <point x="572" y="0" type="line"/>
      <point x="590" y="509"/>
      <point x="650" y="825"/>
      <point x="956" y="1208" type="curve"/>
      <point x="956" y="1343" type="line"/>
      <point x="90" y="1343" type="line"/>
    </contour>
  </outline>
</glyph>
<glyph name="M" format="1">
  <advance width="1510"/>
  <unicode hex="004D"/>
  <outline>
    <contour>
      <point x="417" y="1340" type="line" name="hr01"/>
      <point x="180" y="1340" type="line"/>
      <point x="160" y="0" type="line"/>
      <point x="363" y="0" type="line"/>
      <point x="363" y="644" type="line" smooth="yes"/>
      <point x="363" y="768"/>
      <point x="357" y="941"/>
      <point x="346" y="1063" type="curve" name="hr02"/>
      <point x="354" y="1063" type="line"/>
      <point x="461" y="761" type="line"/>
      <point x="698" y="128" type="line"/>
      <point x="805" y="128" type="line"/>
      <point x="1042" y="761" type="line"/>
      <point x="1150" y="1063" type="line"/>
      <point x="1158" y="1063" type="line"/>
      <point x="1147" y="941"/>
      <point x="1139" y="768"/>
      <point x="1139" y="644" type="curve" smooth="yes"/>
      <point x="1141" y="0" type="line"/>
      <point x="1349" y="0" type="line"/>
      <point x="1327" y="1340" type="line"/>
      <point x="1091" y="1340" type="line"/>
      <point x="850" y="666" type="line"/>
      <point x="761" y="407" type="line"/>
      <point x="753" y="407" type="line"/>
      <point x="663" y="666" type="line"/>
    </contour>
    <contour>
      <point x="757" y="-45" type="move" name="mark0"/>
    </contour>
    <contour>
      <point x="754" y="800" type="move" name="top"/>
    </contour>
  </outline>
</glyph>
<glyph name="O" format="1">
  <advance width="1369"/>
  <unicode hex="004F"/>
  <outline>
    <contour>
      <point x="326" y="1365"/>
      <point x="97" y="1120"/>
      <point x="97" y="675" type="curve" name="hr00" smooth="yes"/>
      <point x="97" y="228"/>
      <point x="326" y="-25"/>
      <point x="683" y="-25" type="curve" smooth="yes"/>
      <point x="1040" y="-25"/>
      <point x="1270" y="228"/>
      <point x="1270" y="675" type="curve" smooth="yes"/>
      <point x="1270" y="1118"/>
      <point x="1040" y="1365"/>
      <point x="683" y="1365" type="curve" smooth="yes"/>
    </contour>
    <contour>
      <point x="908" y="1174"/>
      <point x="1043" y="992"/>
      <point x="1043" y="675" type="curve" smooth="yes"/>
      <point x="1043" y="355"/>
      <point x="908" y="167"/>
      <point x="683" y="167" type="curve" smooth="yes"/>
      <point x="456" y="167"/>
      <point x="324" y="355"/>
      <point x="324" y="675" type="curve" smooth="yes"/>
      <point x="324" y="992"/>
      <point x="456" y="1174"/>
      <point x="683" y="1174" type="curve" smooth="yes"/>
    </contour>
    <contour>
      <point x="683" y="800" type="move" name="top"/>
    </contour>
  </outline>
</glyph>
<glyph name="Z" format="1">
  <advance width="1099"/>
  <unicode hex="005A"/>
  <outline>
    <contour>
      <point x="744" y="1155" type="line" name="hr00"/>
      <point x="81" y="133" type="line"/>
      <point x="81" y="0" type="line"/>
      <point x="1022" y="0" type="line"/>
      <point x="1022" y="187" type="line"/>
      <point x="353" y="187" type="line"/>
      <point x="1017" y="1209" type="line"/>
      <point x="1017" y="1340" type="line"/>
      <point x="141" y="1340" type="line"/>
      <point x="141" y="1155" type="line"/>
    </contour>
    <contour>
      <point x="573" y="-45" type="move" name="mark0"/>
    </contour>
    <contour>
      <point x="551" y="800" type="move" name="top"/>
    </contour>
  </outline>
</glyph>
<glyph name="bracketleft" format="1">
  <advance width="653"/>
  <unicode hex="005B"/>
  <outline>
    <contour>
      <point x="578" y="1450" type="line" name="hr00"/>
      <point x="187" y="1450" type="line"/>
      <point x="187" y="-311" type="line"/>
      <point x="578" y="-311" type="line"/>
      <point x="578" y="-191" type="line"/>
      <point x="351" y="-191" type="line"/>
      <point x="351" y="1328" type="line"/>
      <point x="578" y="1328" type="line"/>
    </contour>
  </outline>
</glyph>
<glyph name="a" format="1">
  <advance width="1066"/>
  <unicode hex="0061"/>
  <outline>
    <contour>
      <point x="662" y="850"/>
      <point x="707" y="779"/>
      <point x="707" y="634" type="curve" name="hr01"/>
      <point x="287" y="617"/>
      <point x="110" y="485"/>
      <point x="110" y="270" type="curve" smooth="yes"/>
      <point x="110" y="94"/>
      <point x="232" y="-25"/>
      <point x="416" y="-25" type="curve" smooth="yes"/>
      <point x="549" y="-25"/>
      <point x="631" y="36"/>
      <point x="723" y="113" type="curve"/>
      <point x="728" y="113" type="line"/>
      <point x="746" y="0" type="line" name="hr02"/>
      <point x="926" y="0" type="line"/>
      <point x="926" y="599" type="line" smooth="yes"/>
      <point x="926" y="880"/>
      <point x="811" y="1028"/>
      <point x="557" y="1028" type="curve" smooth="yes"/>
      <point x="397" y="1028"/>
      <point x="250" y="976"/>
      <point x="144" y="910" type="curve"/>
      <point x="226" y="762" type="line"/>
      <point x="312" y="817"/>
      <point x="412" y="850"/>
      <point x="517" y="850" type="curve" smooth="yes"/>
    </contour>
    <contour>
      <point x="631" y="190"/>
      <point x="567" y="148"/>
      <point x="481" y="148" type="curve" smooth="yes"/>
      <point x="386" y="148"/>
      <point x="322" y="190"/>
      <point x="322" y="285" type="curve" smooth="yes"/>
      <point x="322" y="393"/>
      <point x="407" y="492"/>
      <point x="707" y="501" type="curve"/>
      <point x="707" y="263" type="line"/>
    </contour>
    <contour>
      <point x="535" y="800" type="move" name="top"/>
    </contour>
  </outline>
</glyph>
<glyph name="b" format="1">
  <advance width="1151"/>
  <unicode hex="0062"/>
  <outline>
    <contour>
      <point x="373" y="1450" type="line" name="hr01"/>
      <point x="155" y="1450" type="line"/>
      <point x="155" y="0" type="line" name="hr02"/>
      <point x="328" y="0" type="line"/>
      <point x="346" y="101" type="line"/>
      <point x="353" y="101" type="line"/>
      <point x="438" y="20"/>
      <point x="536" y="-25"/>
      <point x="631" y="-25" type="curve" name="hr03" smooth="yes"/>
      <point x="862" y="-25"/>
      <point x="1059" y="160"/>
      <point x="1059" y="517" type="curve" smooth="yes"/>
      <point x="1059" y="838"/>
      <point x="926" y="1028"/>
      <point x="664" y="1028" type="curve" smooth="yes"/>
      <point x="556" y="1028"/>
      <point x="453" y="975"/>
      <point x="368" y="899" type="curve"/>
      <point x="373" y="1069" type="line"/>
    </contour>
    <contour>
      <point x="585" y="157" type="curve" smooth="yes"/>
      <point x="523" y="157"/>
      <point x="448" y="180"/>
      <point x="373" y="246" type="curve"/>
      <point x="373" y="727" type="line"/>
      <point x="454" y="806"/>
      <point x="526" y="847"/>
      <point x="604" y="847" type="curve" smooth="yes"/>
      <point x="773" y="847"/>
      <point x="833" y="724"/>
      <point x="833" y="514" type="curve" smooth="yes"/>
      <point x="833" y="276"/>
      <point x="730" y="157"/>
    </contour>
    <contour>
      <point x="589" y="-45" type="move" name="mark0"/>
    </contour>
    <contour>
      <point x="607" y="800" type="move" name="top"/>
    </contour>
  </outline>
</glyph>
<glyph name="i" format="1">
  <advance width="527"/>
  <unicode hex="0069"/>
  <outline>
    <contour>
      <point x="126" y="1314" type="curve" name="hr01" smooth="yes"/>
      <point x="126" y="1240"/>
      <point x="186" y="1187"/>
      <point x="265" y="1187" type="curve" smooth="yes"/>
      <point x="344" y="1187"/>
      <point x="404" y="1240"/>
      <point x="404" y="1314" type="curve" smooth="yes"/>
      <point x="404" y="1390"/>
      <point x="344" y="1441"/>
      <point x="265" y="1441" type="curve" smooth="yes"/>
      <point x="186" y="1441"/>
      <point x="126" y="1390"/>
    </contour>
    <contour>
      <point x="373" y="1003" type="line" name="hr02"/>
      <point x="155" y="1003" type="line"/>
      <point x="155" y="0" type="line"/>
      <point x="373" y="0" type="line"/>
    </contour>
    <contour>
      <point x="332" y="0" type="move" name="mark0"/>
    </contour>
    <contour>
      <point x="265" y="800" type="move" name="top"/>
    </contour>
  </outline>
</glyph>
<glyph name="n" format="1">
  <advance width="1139"/>
  <unicode hex="006E"/>
  <outline>
    <contour>
      <point x="334" y="1003" type="line" name="hr01"/>
      <point x="155" y="1003" type="line"/>
      <point x="155" y="0" type="line"/>
      <point x="373" y="0" type="line"/>
      <point x="373" y="708" type="line"/>
      <point x="460" y="794"/>
      <point x="522" y="840"/>
      <point x="614" y="840" type="curve" name="hr02" smooth="yes"/>
      <point x="734" y="840"/>
      <point x="778" y="777"/>
      <point x="778" y="605" type="curve" smooth="yes"/>
      <point x="778" y="0" type="line"/>
      <point x="997" y="0" type="line"/>
      <point x="997" y="634" type="line" smooth="yes"/>
      <point x="997" y="888"/>
      <point x="908" y="1028"/>
      <point x="689" y="1028" type="curve" smooth="yes"/>
      <point x="551" y="1028"/>
      <point x="449" y="955"/>
      <point x="359" y="865" type="curve"/>
      <point x="351" y="865" type="line"/>
    </contour>
    <contour>
      <point x="579" y="-45" type="move" name="mark0"/>
    </contour>
    <contour>
      <point x="597" y="800" type="move" name="top"/>
    </contour>
  </outline>
</glyph>
<glyph name="u" format="1">
  <advance width="1133"/>
  <unicode hex="0075"/>
  <outline>
    <contour>
      <point x="362" y="1003" type="line" name="hr01"/>
      <point x="142" y="1003" type="line"/>
      <point x="142" y="370" type="line" smooth="yes"/>
      <point x="142" y="116"/>
      <point x="230" y="-25"/>
      <point x="451" y="-25" type="curve" smooth="yes"/>
      <point x="595" y="-25"/>
      <point x="686" y="44"/>
      <point x="775" y="150" type="curve"/>
      <point x="782" y="150" type="line"/>
      <point x="799" y="0" type="line" name="hr02"/>
      <point x="979" y="0" type="line"/>
      <point x="979" y="1003" type="line"/>
      <point x="760" y="1003" type="line"/>
      <point x="760" y="310" type="line"/>
      <point x="679" y="207"/>
      <point x="624" y="163"/>
      <point x="526" y="163" type="curve" name="hr03" smooth="yes"/>
      <point x="405" y="163"/>
      <point x="362" y="228"/>
      <point x="362" y="399" type="curve" smooth="yes"/>
    </contour>
    <contour>
      <point x="560" y="800" type="move" name="top"/>
    </contour>
  </outline>
</glyph>
<glyph name="asciitilde" format="1">
  <advance width="1042"/>
  <unicode hex="007E"/>
  <outline>
    <contour>
      <point x="68" y="644" type="curve" name="hr01"/>
      <point x="186" y="556" type="line"/>
      <point x="228" y="646"/>
      <point x="274" y="679"/>
      <point x="339" y="679" type="curve" smooth="yes"/>
      <point x="452" y="679"/>
      <point x="538" y="513"/>
      <point x="703" y="513" type="curve" smooth="yes"/>
      <point x="805" y="513"/>
      <point x="902" y="568"/>
      <point x="974" y="706" type="curve" name="hr02"/>
      <point x="856" y="795" type="line"/>
      <point x="818" y="711"/>
      <point x="769" y="673"/>
      <point x="704" y="673" type="curve" smooth="yes"/>
      <point x="590" y="673"/>
      <point x="509" y="838"/>
      <point x="344" y="838" type="curve" smooth="yes"/>
      <point x="235" y="838"/>
      <point x="137" y="789"/>
    </contour>
  </outline>
</glyph>
<glyph name="germandbls" format="1">
  <advance width="1224"/>
  <unicode hex="00DF"/>
  <outline>
    <contour>
      <point x="155" y="1033" type="curve" name="hr01"/>
      <point x="155" y="0" type="line" name="hr02"/>
      <point x="372" y="0" type="line"/>
      <point x="372" y="1001" type="line" smooth="yes"/>
      <point x="372" y="1191"/>
      <point x="449" y="1294"/>
      <point x="586" y="1294" type="curve" smooth="yes"/>
      <point x="688" y="1294"/>
      <point x="742" y="1225"/>
      <point x="742" y="1131" type="curve" smooth="yes"/>
      <point x="742" y="968"/>
      <point x="575" y="909"/>
      <point x="575" y="734" type="curve" smooth="yes"/>
      <point x="575" y="455"/>
      <point x="963" y="487"/>
      <point x="963" y="280" type="curve" name="hr03" smooth="yes"/>
      <point x="963" y="205"/>
      <point x="909" y="141"/>
      <point x="812" y="141" type="curve" smooth="yes"/>
      <point x="740" y="141"/>
      <point x="675" y="168"/>
      <point x="604" y="224" type="curve"/>
      <point x="523" y="73" type="line"/>
      <point x="612" y="12"/>
      <point x="703" y="-25"/>
      <point x="819" y="-25" type="curve" smooth="yes"/>
      <point x="1039" y="-25"/>
      <point x="1165" y="115"/>
      <point x="1165" y="292" type="curve" smooth="yes"/>
      <point x="1165" y="618"/>
      <point x="779" y="586"/>
      <point x="779" y="761" type="curve" smooth="yes"/>
      <point x="779" y="888"/>
      <point x="955" y="954"/>
      <point x="955" y="1155" type="curve" smooth="yes"/>
      <point x="955" y="1322"/>
      <point x="828" y="1470"/>
      <point x="588" y="1470" type="curve" name="hr04" smooth="yes"/>
      <point x="304" y="1470"/>
      <point x="155" y="1292"/>
    </contour>
    <contour>
      <point x="660" y="800" type="move" name="top"/>
    </contour>
  </outline>
</glyph>
<glyph name="ccedilla" format="1">
  <advance width="942"/>
  <unicode hex="00E7"/>
  <outline>
    <contour>
      <point x="598" y="-97" type="curve" name="hr00"/>
      <point x="634" y="-18" type="line"/>
      <point x="728" y="-6"/>
      <point x="822" y="38"/>
      <point x="896" y="103" type="curve"/>
      <point x="803" y="245" type="line"/>
      <point x="747" y="197"/>
      <point x="675" y="155"/>
      <point x="588" y="155" type="curve" smooth="yes"/>
      <point x="426" y="155"/>
      <point x="312" y="292"/>
      <point x="312" y="501" type="curve" smooth="yes"/>
      <point x="312" y="709"/>
      <point x="428" y="849"/>
      <point x="596" y="849" type="curve" smooth="yes"/>
      <point x="662" y="849"/>
      <point x="718" y="819"/>
      <point x="773" y="772" type="curve"/>
      <point x="877" y="910" type="line"/>
      <point x="810" y="976"/>
      <point x="713" y="1028"/>
      <point x="584" y="1028" type="curve" smooth="yes"/>
      <point x="319" y="1028"/>
      <point x="86" y="835"/>
      <point x="86" y="501" type="curve" smooth="yes"/>
      <point x="86" y="196"/>
      <point x="260" y="11"/>
      <point x="496" y="-19" type="curve"/>
      <point x="428" y="-155" type="line"/>
      <point x="515" y="-176"/>
      <point x="554" y="-203"/>
      <point x="554" y="-249" type="curve" smooth="yes"/>
      <point x="554" y="-304"/>
      <point x="481" y="-332"/>
      <point x="378" y="-344" type="curve"/>
      <point x="396" y="-442" type="line"/>
      <point x="566" y="-430"/>
      <point x="718" y="-372"/>
      <point x="718" y="-245" type="curve" smooth="yes"/>
      <point x="718" y="-161"/>
      <point x="664" y="-120"/>
    </contour>
  </outline>
</glyph>
<glyph name="Aogonek" format="1">
  <advance width="1128"/>
  <unicode hex="0104"/>
  <outline>
    <contour>
      <point x="1189" y="-380" type="curve" name="hr00"/>
      <point x="1134" y="-265" type="line"/>
      <point x="1111" y="-282"/>
      <point x="1084" y="-294"/>
      <point x="1050" y="-294" type="curve" smooth="yes"/>
      <point x="1004" y="-294"/>
      <point x="961" y="-265"/>
      <point x="961" y="-206" type="curve" smooth="yes"/>
      <point x="961" y="-121"/>
      <point x="1033" y="-28"/>
      <point x="1134" y="0" type="curve"/>
      <point x="692" y="1340" type="line"/>
      <point x="436" y="1340" type="line"/>
      <point x="-5" y="0" type="line"/>
      <point x="219" y="0" type="line"/>
      <point x="330" y="375" type="line"/>
      <point x="790" y="375" type="line"/>
      <point x="901" y="0" type="line"/>
      <point x="955" y="0" type="line"/>
      <point x="886" y="-44"/>
      <point x="797" y="-142"/>
      <point x="797" y="-259" type="curve" smooth="yes"/>
      <point x="797" y="-378"/>
      <point x="890" y="-443"/>
      <point x="1007" y="-443" type="curve" smooth="yes"/>
      <point x="1068" y="-443"/>
      <point x="1145" y="-415"/>
    </contour>
    <contour>
      <point x="688" y="723" type="curve"/>
      <point x="740" y="549" type="line"/>
      <point x="380" y="549" type="line"/>
      <point x="434" y="723" type="line"/>
      <point x="477" y="866"/>
      <point x="518" y="1017"/>
      <point x="556" y="1167" type="curve"/>
      <point x="564" y="1167" type="line"/>
      <point x="604" y="1018"/>
      <point x="644" y="866"/>
    </contour>
    <contour>
      <point x="564" y="1386" type="move" name="mark0"/>
    </contour>
  </outline>
</glyph>
<glyph name="uni0163" format="1">
  <advance width="727"/>
  <unicode hex="0163"/>
  <outline>
    <contour>
      <point x="495" y="-97" type="curve" name="hr01"/>
      <point x="530" y="-24" type="line"/>
      <point x="544" y="-23"/>
      <point x="557" y="-21"/>
      <point x="571" y="-19" type="curve" smooth="yes"/>
      <point x="617" y="-12"/>
      <point x="661" y="0"/>
      <point x="698" y="12" type="curve"/>
      <point x="659" y="174" type="line" name="hr02"/>
      <point x="629" y="163"/>
      <point x="587" y="150"/>
      <point x="553" y="150" type="curve" smooth="yes"/>
      <point x="452" y="150"/>
      <point x="408" y="211"/>
      <point x="408" y="331" type="curve" smooth="yes"/>
      <point x="408" y="828" type="line"/>
      <point x="667" y="828" type="line"/>
      <point x="667" y="1003" type="line"/>
      <point x="408" y="1003" type="line"/>
      <point x="408" y="1279" type="line"/>
      <point x="225" y="1279" type="line"/>
      <point x="199" y="1003" type="line"/>
      <point x="44" y="992" type="line"/>
      <point x="44" y="828" type="line"/>
      <point x="188" y="828" type="line"/>
      <point x="188" y="331" type="line" smooth="yes"/>
      <point x="188" y="154"/>
      <point x="245" y="24"/>
      <point x="398" y="-12" type="curve" name="hr03"/>
      <point x="326" y="-155" type="line"/>
      <point x="413" y="-176"/>
      <point x="452" y="-203"/>
      <point x="452" y="-249" type="curve" smooth="yes"/>
      <point x="452" y="-304"/>
      <point x="378" y="-332"/>
      <point x="275" y="-344" type="curve"/>
      <point x="294" y="-442" type="line"/>
      <point x="462" y="-430"/>
      <point x="615" y="-372"/>
      <point x="615" y="-245" type="curve" smooth="yes"/>
      <point x="615" y="-161"/>
      <point x="562" y="-120"/>
    </contour>
  </outline>
</glyph>
<glyph name="uni02BB" format="1">
  <advance width="550"/>
  <unicode hex="02BB"/>
  <outline>
    <contour>
      <point x="416" y="1316" type="curve" name="hr01"/>
      <point x="360" y="1415" type="line"/>
      <point x="198" y="1328"/>
      <point x="115" y="1198"/>
      <point x="115" y="1023" type="curve" smooth="yes"/>
      <point x="115" y="885"/>
      <point x="169" y="806"/>
      <point x="269" y="806" type="curve" name="hr02" smooth="yes"/>
      <point x="342" y="806"/>
      <point x="396" y="858"/>
      <point x="396" y="940" type="curve" smooth="yes"/>
      <point x="396" y="1017"/>
      <point x="335" y="1062"/>
      <point x="269" y="1062" type="curve" smooth="yes"/>
      <point x="263" y="1062"/>
      <point x="255" y="1062"/>
      <point x="249" y="1060" type="curve"/>
      <point x="249" y="1178"/>
      <point x="305" y="1251"/>
    </contour>
  </outline>
</glyph>
<glyph name="uni02C8" format="1">
  <advance width="259"/>
  <unicode hex="02C8"/>
  <outline>
    <contour>
      <point x="220" y="1485" type="line" name="hr00"/>
      <point x="40" y="1485" type="line"/>
      <point x="52" y="1097" type="line"/>
      <point x="208" y="1097" type="line"/>
    </contour>
  </outline>
</glyph>
<glyph name="gha-deva" format="1">
  <advance width="1187"/>
  <unicode hex="0918"/>
  <outline>
    <contour>
      <point x="221" y="840"/>
      <point x="117" y="688"/>
      <point x="117" y="526" type="curve" smooth="yes"/>
      <point x="117" y="337"/>
      <point x="244" y="212"/>
      <point x="477" y="212" type="curve" smooth="yes"/>
      <point x="676" y="212"/>
      <point x="827" y="289"/>
      <point x="918" y="393" type="curve"/>
      <point x="888" y="603" type="line"/>
      <point x="803" y="479"/>
      <point x="651" y="393"/>
      <point x="493" y="393" type="curve" smooth="yes"/>
      <point x="383" y="393"/>
      <point x="331" y="431"/>
      <point x="331" y="528" type="curve" smooth="yes"/>
      <point x="331" y="630"/>
      <point x="407" y="660"/>
      <point x="565" y="674" type="curve"/>
      <point x="557" y="843" type="line"/>
    </contour>
    <contour>
      <point x="306" y="1227"/>
      <point x="69" y="1192"/>
      <point x="69" y="983" type="curve" smooth="yes"/>
      <point x="69" y="864"/>
      <point x="143" y="777"/>
      <point x="369" y="681" type="curve"/>
      <point x="467" y="758" type="line"/>
      <point x="390" y="798"/>
      <point x="281" y="846"/>
      <point x="281" y="969" type="curve" smooth="yes"/>
      <point x="281" y="1077"/>
      <point x="360" y="1095"/>
      <point x="483" y="1106" type="curve"/>
      <point x="500" y="1237" type="line"/>
    </contour>
    <contour>
      <point x="802" y="1199" type="line"/>
      <point x="802" y="0" type="line"/>
      <point x="1012" y="0" type="line"/>
      <point x="1012" y="1199" type="line"/>
    </contour>
    <contour>
      <point x="-19" y="1287" type="line"/>
      <point x="-19" y="1104" type="line"/>
      <point x="1206" y="1104" type="line"/>
      <point x="1206" y="1287" type="line"/>
    </contour>
    <contour>
      <point x="201" y="82" type="move" name="nukta"/>
    </contour>
    <contour>
      <point x="910" y="1167" type="move" name="top"/>
    </contour>
    <contour>
      <point x="651" y="1167" type="move" name="topcandra"/>
    </contour>
    <contour>
      <point x="909" y="27" type="move" name="bottom"/>
    </contour>
  </outline>
</glyph>
<glyph name="jha-deva" format="1">
  <advance width="1563"/>
  <unicode hex="091D"/>
  <outline>
    <contour>
      <point x="1105" y="543"/>
      <point x="947" y="502"/>
      <point x="828" y="516" type="curve"/>
      <point x="896" y="363" type="line"/>
      <point x="1002" y="344"/>
      <point x="1188" y="384"/>
      <point x="1252" y="444" type="curve"/>
      <point x="1221" y="630" type="line"/>
    </contour>
    <component base="i-deva"/>
    <component base="aaMatra-deva" xOffset="1002"/>
    <contour>
      <point x="164" y="-196" type="move" name="nukta"/>
    </contour>
    <contour>
      <point x="1283" y="1167" type="move" name="top"/>
    </contour>
    <contour>
      <point x="1033" y="1186" type="move" name="topcandra"/>
    </contour>
    <contour>
      <point x="1283" y="27" type="move" name="bottom"/>
    </contour>
  </outline>
</glyph>
<glyph name="ttha-deva" format="1">
  <advance width="1177"/>
  <unicode hex="0920"/>
  <outline>
    <contour>
      <point x="-19" y="1287" type="line"/>
      <point x="-19" y="1104" type="line"/>
      <point x="1196" y="1104" type="line"/>
      <point x="1196" y="1287" type="line"/>
    </contour>
    <contour>
      <point x="928" y="6"/>
      <point x="1105" y="150"/>
      <point x="1105" y="452" type="curve" smooth="yes"/>
      <point x="1105" y="660"/>
      <point x="1019" y="830"/>
      <point x="802" y="887" type="curve" smooth="yes"/>
      <point x="732" y="902"/>
      <point x="678" y="908"/>
      <point x="590" y="908" type="curve" smooth="yes"/>
      <point x="288" y="908"/>
      <point x="72" y="810"/>
      <point x="72" y="483" type="curve" smooth="yes"/>
      <point x="72" y="170"/>
      <point x="253" y="6"/>
      <point x="600" y="6" type="curve" smooth="yes"/>
    </contour>
    <contour>
      <point x="369" y="194"/>
      <point x="292" y="272"/>
      <point x="292" y="451" type="curve" smooth="yes"/>
      <point x="292" y="659"/>
      <point x="397" y="720"/>
      <point x="595" y="720" type="curve" smooth="yes"/>
      <point x="693" y="720"/>
      <point x="766" y="710"/>
      <point x="815" y="674" type="curve" smooth="yes"/>
      <point x="867" y="635"/>
      <point x="888" y="567"/>
      <point x="886" y="457" type="curve" smooth="yes"/>
      <point x="881" y="274"/>
      <point x="790" y="194"/>
      <point x="587" y="194" type="curve" smooth="yes"/>
    </contour>
    <contour>
      <point x="871" y="854" type="line"/>
      <point x="871" y="1155" type="line"/>
      <point x="664" y="1155" type="line"/>
      <point x="664" y="888" type="line"/>
    </contour>
    <contour>
      <point x="-14" y="82" type="move" name="nukta"/>
    </contour>
    <contour>
      <point x="771" y="1167" type="move" name="top"/>
    </contour>
    <contour>
      <point x="628" y="1167" type="move" name="topcandra"/>
    </contour>
    <contour>
      <point x="621" y="35" type="move" name="bottom"/>
    </contour>
  </outline>
</glyph>
<glyph name="nna-deva" format="1">
  <advance width="1547"/>
  <unicode hex="0923"/>
  <outline>
    <contour>
      <point x="696" y="1162" type="line"/>
      <point x="696" y="691" type="line" smooth="yes"/>
      <point x="696" y="559"/>
      <point x="650" y="487"/>
      <point x="508" y="487" type="curve" smooth="yes"/>
      <point x="378" y="487"/>
      <point x="336" y="558"/>
      <point x="336" y="685" type="curve" smooth="yes"/>
      <point x="336" y="1162" type="line"/>
      <point x="126" y="1162" type="line"/>
      <point x="126" y="703" type="line" smooth="yes"/>
      <point x="126" y="442"/>
      <point x="252" y="298"/>
      <point x="511" y="298" type="curve" smooth="yes"/>
      <point x="767" y="298"/>
      <point x="906" y="439"/>
      <point x="906" y="703" type="curve" smooth="yes"/>
      <point x="906" y="1162" type="line"/>
    </contour>
    <contour>
      <point x="1162" y="1216" type="line"/>
      <point x="1162" y="1" type="line"/>
      <point x="1372" y="1" type="line"/>
      <point x="1372" y="1216" type="line"/>
    </contour>
    <contour>
      <point x="-19" y="1287" type="line"/>
      <point x="-19" y="1104" type="line"/>
      <point x="1566" y="1104" type="line"/>
      <point x="1566" y="1287" type="line"/>
    </contour>
    <contour>
      <point x="265" y="82" type="move" name="nukta"/>
    </contour>
    <contour>
      <point x="1267" y="1167" type="move" name="top"/>
    </contour>
    <contour>
      <point x="775" y="1167" type="move" name="topcandra"/>
    </contour>
    <contour>
      <point x="1267" y="27" type="move" name="bottom"/>
    </contour>
  </outline>
</glyph>
<glyph name="ma-deva" format="1">
  <advance width="1185"/>
  <unicode hex="092E"/>
  <outline>
    <contour>
      <point x="799" y="1152" type="line"/>
      <point x="799" y="1" type="line"/>
      <point x="1009" y="1" type="line"/>
      <point x="1009" y="1152" type="line"/>
    </contour>
    <contour>
      <point x="232" y="659" type="line"/>
      <point x="45" y="635" type="line"/>
      <point x="45" y="492" type="line"/>
      <point x="230" y="286" type="line"/>
      <point x="370" y="287"/>
      <point x="398" y="354"/>
      <point x="398" y="435" type="curve" smooth="yes"/>
      <point x="398" y="659" type="line"/>
    </contour>
    <contour>
      <point x="187" y="1152" type="line"/>
      <point x="187" y="382" type="line"/>
      <point x="396" y="572" type="line"/>
      <point x="397" y="1152" type="line"/>
    </contour>
    <contour>
      <point x="193" y="655" type="line"/>
      <point x="193" y="469" type="line"/>
      <point x="969" y="469" type="line"/>
      <point x="969" y="655" type="line"/>
    </contour>
    <contour>
      <point x="-19" y="1287" type="line"/>
      <point x="-19" y="1104" type="line"/>
      <point x="1203" y="1104" type="line"/>
      <point x="1203" y="1287" type="line"/>
    </contour>
    <contour>
      <point x="299" y="82" type="move" name="nukta"/>
    </contour>
    <contour>
      <point x="904" y="1167" type="move" name="top"/>
    </contour>
    <contour>
      <point x="615" y="1167" type="move" name="topcandra"/>
    </contour>
    <contour>
      <point x="904" y="27" type="move" name="bottom"/>
    </contour>
  </outline>
</glyph>
<glyph name="nukta-deva" format="1">
  <advance width="540"/>
  <unicode hex="093C"/>
  <outline>
    <contour>
      <point x="187" y="145"/>
      <point x="151" y="110"/>
      <point x="151" y="27" type="curve" smooth="yes"/>
      <point x="151" y="-55"/>
      <point x="187" y="-90"/>
      <point x="270" y="-90" type="curve" smooth="yes"/>
      <point x="353" y="-90"/>
      <point x="389" y="-55"/>
      <point x="389" y="27" type="curve" smooth="yes"/>
      <point x="389" y="110"/>
      <point x="353" y="145"/>
      <point x="270" y="145" type="curve" smooth="yes"/>
    </contour>
    <contour>
      <point x="271" y="27" type="move" name="_nukta"/>
    </contour>
  </outline>
</glyph>
<glyph name="uMatra-deva" format="1">
  <advance width="540"/>
  <unicode hex="0941"/>
  <outline>
    <contour>
      <point x="39" y="-172" type="line"/>
      <point x="102" y="-147"/>
      <point x="158" y="-131"/>
      <point x="219" y="-131" type="curve" smooth="yes"/>
      <point x="290" y="-131"/>
      <point x="329" y="-158"/>
      <point x="329" y="-238" type="curve" smooth="yes"/>
      <point x="329" y="-305"/>
      <point x="284" y="-349"/>
      <point x="181" y="-349" type="curve" smooth="yes"/>
      <point x="81" y="-349"/>
      <point x="-34" y="-307"/>
      <point x="-209" y="-117" type="curve"/>
      <point x="-313" y="-215" type="line"/>
      <point x="-114" y="-466"/>
      <point x="43" y="-531"/>
      <point x="184" y="-531" type="curve" smooth="yes"/>
      <point x="402" y="-531"/>
      <point x="521" y="-405"/>
      <point x="521" y="-238" type="curve" smooth="yes"/>
      <point x="521" y="-82"/>
      <point x="417" y="44"/>
      <point x="218" y="44" type="curve" smooth="yes"/>
      <point x="152" y="44"/>
      <point x="60" y="29"/>
      <point x="-17" y="-10" type="curve"/>
    </contour>
    <contour>
      <point x="198" y="21" type="move" name="_bottom"/>
    </contour>
  </outline>
</glyph>
<glyph name="prishthaMatraE-deva" format="1">
  <advance width="563"/>
  <unicode hex="094E"/>
  <outline>
    <contour>
      <point x="176" y="1208" type="line"/>
      <point x="176" y="0" type="line"/>
      <point x="386" y="0" type="line"/>
      <point x="386" y="1208" type="line"/>
    </contour>
    <contour>
      <point x="176" y="1287" type="line"/>
      <point x="176" y="1104" type="line"/>
      <point x="582" y="1104" type="line"/>
      <point x="582" y="1287" type="line"/>
    </contour>
    <contour>
      <point x="281" y="1167" type="move" name="top"/>
    </contour>
    <contour>
      <point x="281" y="27" type="move" name="bottom"/>
    </contour>
  </outline>
</glyph>
<glyph name="llVocalic-deva" format="1">
  <advance width="1271"/>
  <unicode hex="0961"/>
  <outline>
    <contour>
      <point x="967" y="174"/>
      <point x="876" y="36"/>
      <point x="876" y="-81" type="curve" smooth="yes"/>
      <point x="876" y="-222"/>
      <point x="988" y="-325"/>
      <point x="1155" y="-321" type="curve" smooth="yes"/>
      <point x="1261" y="-318"/>
      <point x="1363" y="-284"/>
      <point x="1442" y="-226" type="curve"/>
      <point x="1375" y="-86" type="line"/>
      <point x="1309" y="-127"/>
      <point x="1234" y="-156"/>
      <point x="1169" y="-158" type="curve" smooth="yes"/>
      <point x="1096" y="-160"/>
      <point x="1067" y="-132"/>
      <point x="1067" y="-79" type="curve" smooth="yes"/>
      <point x="1067" y="-20"/>
      <point x="1119" y="20"/>
      <point x="1259" y="36" type="curve"/>
      <point x="1237" y="188" type="line"/>
    </contour>
    <contour>
      <point x="-19" y="1287" type="line"/>
      <point x="-19" y="1104" type="line"/>
      <point x="1281" y="1104" type="line"/>
      <point x="1281" y="1287" type="line"/>
    </contour>
    <contour>
      <point x="837" y="1163" type="line"/>
      <point x="837" y="828" type="line"/>
      <point x="1047" y="828" type="line"/>
      <point x="1047" y="1163" type="line"/>
    </contour>
    <contour>
      <point x="647" y="943"/>
      <point x="538" y="775"/>
      <point x="538" y="574" type="curve" smooth="yes"/>
      <point x="538" y="529"/>
      <point x="543" y="485"/>
      <point x="558" y="446" type="curve"/>
      <point x="739" y="465" type="line"/>
      <point x="734" y="497"/>
      <point x="731" y="527"/>
      <point x="731" y="557" type="curve" smooth="yes"/>
      <point x="731" y="668"/>
      <point x="780" y="751"/>
      <point x="879" y="751" type="curve" smooth="yes"/>
      <point x="983" y="751"/>
      <point x="1020" y="667"/>
      <point x="1020" y="563" type="curve" smooth="yes"/>
      <point x="1020" y="532"/>
      <point x="1018" y="507"/>
      <point x="1010" y="475" type="curve"/>
      <point x="1038" y="527" type="line"/>
      <point x="924" y="508"/>
      <point x="795" y="437"/>
      <point x="795" y="311" type="curve" smooth="yes"/>
      <point x="795" y="233"/>
      <point x="817" y="115"/>
      <point x="1085" y="65" type="curve"/>
      <point x="1184" y="142" type="line"/>
      <point x="1030" y="168"/>
      <point x="995" y="228"/>
      <point x="995" y="280" type="curve" smooth="yes"/>
      <point x="995" y="357"/>
      <point x="1085" y="375"/>
      <point x="1195" y="393" type="curve"/>
      <point x="1209" y="450"/>
      <point x="1216" y="506"/>
      <point x="1216" y="560" type="curve" smooth="yes"/>
      <point x="1216" y="792"/>
      <point x="1099" y="943"/>
      <point x="870" y="943" type="curve" smooth="yes"/>
    </contour>
    <contour>
      <point x="167" y="940"/>
      <point x="54" y="815"/>
      <point x="54" y="597" type="curve" smooth="yes"/>
      <point x="54" y="334"/>
      <point x="214" y="132"/>
      <point x="308" y="24" type="curve"/>
      <point x="456" y="151" type="line"/>
      <point x="345" y="293"/>
      <point x="260" y="423"/>
      <point x="260" y="567" type="curve" smooth="yes"/>
      <point x="260" y="707"/>
      <point x="329" y="746"/>
      <point x="389" y="746" type="curve" smooth="yes"/>
      <point x="494" y="746"/>
      <point x="565" y="659"/>
      <point x="642" y="536" type="curve"/>
      <point x="661" y="671" type="line"/>
      <point x="589" y="860"/>
      <point x="486" y="940"/>
      <point x="339" y="940" type="curve" smooth="yes"/>
    </contour>
    <contour>
      <point x="942" y="1167" type="move" name="top"/>
    </contour>
    <contour>
      <point x="705" y="31" type="move" name="bottom"/>
    </contour>
    <contour>
      <point x="641" y="1167" type="move" name="topcandra"/>
    </contour>
  </outline>
</glyph>
<glyph name="jja-deva" format="1">
  <advance width="1422"/>
  <unicode hex="097C"/>
  <outline>
    <contour>
      <point x="147" y="74" type="line"/>
      <point x="147" y="-96" type="line"/>
      <point x="1247" y="-96" type="line"/>
      <point x="1247" y="74" type="line"/>
    </contour>
    <component base="ja-deva"/>
  </outline>
</glyph>
<glyph name="b.sups" format="1">
  <advance width="774"/>
  <unicode hex="1D47"/>
  <outline>
    <contour>
      <point x="258" y="1488" type="line" name="hr00"/>
      <point x="98" y="1488" type="line"/>
      <point x="98" y="532" type="line"/>
      <point x="222" y="532" type="line"/>
      <point x="236" y="600" type="line"/>
      <point x="244" y="600" type="line"/>
      <point x="297" y="545"/>
      <point x="366" y="516"/>
      <point x="428" y="516" type="curve" smooth="yes"/>
      <point x="576" y="516"/>
      <point x="712" y="647"/>
      <point x="712" y="877" type="curve" smooth="yes"/>
      <point x="712" y="1080"/>
      <point x="615" y="1214"/>
      <point x="446" y="1214" type="curve" smooth="yes"/>
      <point x="375" y="1214"/>
      <point x="309" y="1177"/>
      <point x="251" y="1128" type="curve"/>
      <point x="258" y="1239" type="line"/>
    </contour>
    <contour>
      <point x="396" y="645" type="curve" smooth="yes"/>
      <point x="355" y="645"/>
      <point x="305" y="660"/>
      <point x="258" y="700" type="curve"/>
      <point x="258" y="1008" type="line"/>
      <point x="308" y="1057"/>
      <point x="356" y="1083"/>
      <point x="404" y="1083" type="curve" smooth="yes"/>
      <point x="503" y="1083"/>
      <point x="548" y="1008"/>
      <point x="548" y="875" type="curve" smooth="yes"/>
      <point x="548" y="724"/>
      <point x="482" y="645"/>
    </contour>
  </outline>
</glyph>
<glyph name="p.sups" format="1">
  <advance width="774"/>
  <unicode hex="1D56"/>
  <outline>
    <contour>
      <point x="226" y="1197" type="line" name="hr00"/>
      <point x="98" y="1197" type="line"/>
      <point x="98" y="255" type="line"/>
      <point x="258" y="255" type="line"/>
      <point x="258" y="460" type="line"/>
      <point x="249" y="590" type="line"/>
      <point x="302" y="542"/>
      <point x="368" y="516"/>
      <point x="428" y="516" type="curve" smooth="yes"/>
      <point x="576" y="516"/>
      <point x="712" y="647"/>
      <point x="712" y="877" type="curve" smooth="yes"/>
      <point x="712" y="1080"/>
      <point x="615" y="1214"/>
      <point x="446" y="1214" type="curve" smooth="yes"/>
      <point x="370" y="1214"/>
      <point x="297" y="1171"/>
      <point x="246" y="1125" type="curve"/>
      <point x="240" y="1125" type="line"/>
    </contour>
    <contour>
      <point x="396" y="645" type="curve" smooth="yes"/>
      <point x="355" y="645"/>
      <point x="305" y="660"/>
      <point x="258" y="700" type="curve"/>
      <point x="258" y="1008" type="line"/>
      <point x="308" y="1057"/>
      <point x="356" y="1083"/>
      <point x="404" y="1083" type="curve" smooth="yes"/>
      <point x="503" y="1083"/>
      <point x="548" y="1008"/>
      <point x="548" y="875" type="curve" smooth="yes"/>
      <point x="548" y="724"/>
      <point x="482" y="645"/>
    </contour>
  </outline>
</glyph>
<glyph name="daggerdbl" format="1">
  <advance width="974"/>
  <unicode hex="2021"/>
  <outline>
    <contour>
      <point x="409" y="325" type="line" name="hr00"/>
      <point x="103" y="343" type="line"/>
      <point x="103" y="161" type="line"/>
      <point x="409" y="174" type="line"/>
      <point x="396" y="-164" type="line"/>
      <point x="577" y="-164" type="line"/>
      <point x="564" y="174" type="line"/>
      <point x="871" y="161" type="line"/>
      <point x="871" y="343" type="line"/>
      <point x="564" y="325" type="line"/>
      <point x="577" y="647" type="line"/>
      <point x="564" y="970" type="line"/>
      <point x="871" y="951" type="line"/>
      <point x="871" y="1134" type="line"/>
      <point x="564" y="1120" type="line"/>
      <point x="577" y="1458" type="line"/>
      <point x="396" y="1458" type="line"/>
      <point x="409" y="1120" type="line"/>
      <point x="103" y="1134" type="line"/>
      <point x="103" y="951" type="line"/>
      <point x="409" y="970" type="line"/>
      <point x="396" y="647" type="line"/>
    </contour>
  </outline>
</glyph>
<glyph name="bullet" format="1">
  <advance width="655"/>
  <unicode hex="2022"/>
  <outline>
    <contour>
      <point x="82" y="538" type="curve" name="hr00" smooth="yes"/>
      <point x="82" y="385"/>
      <point x="193" y="277"/>
      <point x="327" y="277" type="curve" smooth="yes"/>
      <point x="461" y="277"/>
      <point x="573" y="385"/>
      <point x="573" y="538" type="curve" smooth="yes"/>
      <point x="573" y="691"/>
      <point x="461" y="799"/>
      <point x="327" y="799" type="curve" smooth="yes"/>
      <point x="193" y="799"/>
      <point x="82" y="691"/>
    </contour>
  </outline>
</glyph>
<glyph name="zero.sups" format="1">
  <advance width="759"/>
  <unicode hex="2070"/>
  <outline>
    <contour>
      <point x="65" y="1303" type="curve" name="hr00" smooth="yes"/>
      <point x="65" y="1032"/>
      <point x="193" y="877"/>
      <point x="380" y="877" type="curve" smooth="yes"/>
      <point x="566" y="877"/>
      <point x="696" y="1032"/>
      <point x="696" y="1303" type="curve" smooth="yes"/>
      <point x="696" y="1570"/>
      <point x="566" y="1724"/>
      <point x="380" y="1724" type="curve" smooth="yes"/>
      <point x="193" y="1724"/>
      <point x="65" y="1570"/>
    </contour>
    <contour>
      <point x="536" y="1303" type="curve" smooth="yes"/>
      <point x="536" y="1098"/>
      <point x="470" y="1005"/>
      <point x="380" y="1005" type="curve" smooth="yes"/>
      <point x="288" y="1005"/>
      <point x="223" y="1098"/>
      <point x="223" y="1303" type="curve" smooth="yes"/>
      <point x="223" y="1507"/>
      <point x="288" y="1596"/>
      <point x="380" y="1596" type="curve" smooth="yes"/>
      <point x="470" y="1596"/>
      <point x="536" y="1507"/>
    </contour>
  </outline>
</glyph>
<glyph name="n.sups" format="1">
  <advance width="767"/>
  <unicode hex="207F"/>
  <outline>
    <contour>
      <point x="226" y="1197" type="line" name="hr00"/>
      <point x="98" y="1197" type="line"/>
      <point x="98" y="532" type="line"/>
      <point x="258" y="532" type="line"/>
      <point x="258" y="995" type="line"/>
      <point x="315" y="1051"/>
      <point x="360" y="1079"/>
      <point x="411" y="1079" type="curve" smooth="yes"/>
      <point x="499" y="1079"/>
      <point x="517" y="1023"/>
      <point x="517" y="927" type="curve" smooth="yes"/>
      <point x="517" y="532" type="line"/>
      <point x="677" y="532" type="line"/>
      <point x="677" y="947" type="line" smooth="yes"/>
      <point x="677" y="1107"/>
      <point x="620" y="1214"/>
      <point x="467" y="1214" type="curve" smooth="yes"/>
      <point x="378" y="1214"/>
      <point x="304" y="1165"/>
      <point x="247" y="1106" type="curve"/>
      <point x="240" y="1106" type="line"/>
    </contour>
  </outline>
</glyph>
<glyph name="parenright.subs" format="1">
  <advance width="509"/>
  <unicode hex="208E"/>
  <outline>
    <contour>
      <point x="220" y="-62" type="curve" name="hr00" smooth="yes"/>
      <point x="220" y="-245"/>
      <point x="176" y="-414"/>
      <point x="77" y="-578" type="curve"/>
      <point x="199" y="-631" type="line"/>
      <point x="313" y="-460"/>
      <point x="378" y="-299"/>
      <point x="378" y="-62" type="curve" smooth="yes"/>
      <point x="378" y="173"/>
      <point x="313" y="334"/>
      <point x="199" y="506" type="curve"/>
      <point x="77" y="452" type="line"/>
      <point x="176" y="291"/>
      <point x="220" y="121"/>
    </contour>
  </outline>
</glyph>
<glyph name="rupee" format="1">
  <advance width="1354"/>
  <unicode hex="20A8"/>
  <outline>
    <contour>
      <point x="552" y="1176" type="line"/>
      <point x="552" y="739" type="line" smooth="yes"/>
      <point x="552" y="677"/>
      <point x="530" y="649"/>
      <point x="480" y="649" type="curve" smooth="yes"/>
      <point x="447" y="649"/>
      <point x="416" y="661"/>
      <point x="378" y="693" type="curve"/>
      <point x="234" y="582" type="line"/>
      <point x="652" y="-42" type="line"/>
      <point x="820" y="81" type="line"/>
      <point x="488" y="511" type="line"/>
      <point x="479" y="502" type="line"/>
      <point x="495" y="493"/>
      <point x="522" y="488"/>
      <point x="547" y="488" type="curve" smooth="yes"/>
      <point x="660" y="488"/>
      <point x="752" y="574"/>
      <point x="752" y="751" type="curve" smooth="yes"/>
      <point x="752" y="1176" type="line"/>
    </contour>
    <contour>
      <point x="172" y="1287" type="line"/>
      <point x="172" y="1104" type="line"/>
      <point x="961" y="1104" type="line"/>
      <point x="961" y="1287" type="line"/>
    </contour>
    <contour>
      <point x="172" y="969" type="line"/>
      <point x="172" y="787" type="line"/>
      <point x="961" y="787" type="line"/>
      <point x="961" y="969" type="line"/>
    </contour>
    <contour>
      <point x="453" y="1167" type="move" name="top"/>
    </contour>
    <contour>
      <point x="375" y="27" type="move" name="bottom"/>
    </contour>
  </outline>
</glyph>
<glyph name="uni2113" format="1">
  <advance width="886"/>
  <unicode hex="2113"/>
  <outline>
    <contour>
      <point x="880" y="115" type="curve" name="hr00"/>
      <point x="797" y="249" type="line"/>
      <point x="748" y="204"/>
      <point x="690" y="159"/>
      <point x="607" y="159" type="curve" smooth="yes"/>
      <point x="512" y="159"/>
      <point x="434" y="224"/>
      <point x="434" y="394" type="curve" smooth="yes"/>
      <point x="434" y="458" type="line"/>
      <point x="701" y="672"/>
      <point x="841" y="889"/>
      <point x="841" y="1145" type="curve" smooth="yes"/>
      <point x="841" y="1355"/>
      <point x="724" y="1475"/>
      <point x="551" y="1475" type="curve" smooth="yes"/>
      <point x="361" y="1475"/>
      <point x="220" y="1338"/>
      <point x="220" y="1010" type="curve" smooth="yes"/>
      <point x="220" y="499" type="line"/>
      <point x="162" y="458"/>
      <point x="100" y="417"/>
      <point x="34" y="374" type="curve"/>
      <point x="119" y="239" type="line"/>
      <point x="155" y="261"/>
      <point x="190" y="285"/>
      <point x="224" y="307" type="curve"/>
      <point x="225" y="292"/>
      <point x="228" y="277"/>
      <point x="231" y="263" type="curve" smooth="yes"/>
      <point x="269" y="72"/>
      <point x="411" y="-25"/>
      <point x="576" y="-25" type="curve" smooth="yes"/>
      <point x="704" y="-25"/>
      <point x="803" y="46"/>
    </contour>
    <contour>
      <point x="434" y="675" type="curve"/>
      <point x="434" y="1043" type="line" smooth="yes"/>
      <point x="434" y="1232"/>
      <point x="493" y="1311"/>
      <point x="557" y="1311" type="curve" smooth="yes"/>
      <point x="617" y="1311"/>
      <point x="660" y="1261"/>
      <point x="660" y="1145" type="curve" smooth="yes"/>
      <point x="660" y="972"/>
      <point x="579" y="819"/>
    </contour>
  </outline>
</glyph>
<glyph name="uni2206" format="1">
  <advance width="1257"/>
  <unicode hex="2206"/>
  <outline>
    <contour>
      <point x="499" y="1352" type="line" name="hr01"/>
      <point x="64" y="133" type="line"/>
      <point x="64" y="0" type="line"/>
      <point x="1195" y="0" type="line"/>
      <point x="1195" y="133" type="line"/>
      <point x="759" y="1352" type="line"/>
    </contour>
    <contour>
      <point x="752" y="749" type="line"/>
      <point x="945" y="187" type="line"/>
      <point x="314" y="187" type="line"/>
      <point x="507" y="749" type="line"/>
      <point x="626" y="1135" type="line" name="hr02"/>
      <point x="634" y="1135" type="line"/>
    </contour>
  </outline>
</glyph>
<glyph name="summation" format="1">
  <advance width="1056"/>
  <unicode hex="2211"/>
  <outline>
    <contour>
      <point x="71" y="1169" type="line" name="hr00"/>
      <point x="511" y="528" type="line"/>
      <point x="48" y="-111" type="line"/>
      <point x="48" y="-246" type="line"/>
      <point x="1045" y="-246" type="line"/>
      <point x="1045" y="-59" type="line"/>
      <point x="322" y="-59" type="line"/>
      <point x="322" y="-51" type="line"/>
      <point x="740" y="530" type="line"/>
      <point x="340" y="1109" type="line"/>
      <point x="340" y="1117" type="line"/>
      <point x="991" y="1117" type="line"/>
      <point x="991" y="1304" type="line"/>
      <point x="71" y="1304" type="line"/>
    </contour>
  </outline>
</glyph>
<glyph name="integral" format="1">
  <advance width="725"/>
  <unicode hex="222B"/>
  <outline>
    <contour>
      <point x="194" y="-155" type="curve" name="hr01" smooth="yes"/>
      <point x="165" y="-155"/>
      <point x="140" y="-152"/>
      <point x="122" y="-147" type="curve"/>
      <point x="98" y="-308" type="line"/>
      <point x="119" y="-316"/>
      <point x="159" y="-324"/>
      <point x="204" y="-324" type="curve" smooth="yes"/>
      <point x="471" y="-324"/>
      <point x="526" y="-117"/>
      <point x="526" y="159" type="curve" smooth="yes"/>
      <point x="526" y="476"/>
      <point x="445" y="838"/>
      <point x="445" y="1141" type="curve" smooth="yes"/>
      <point x="445" y="1345"/>
      <point x="466" y="1451"/>
      <point x="577" y="1451" type="curve" name="hr02" smooth="yes"/>
      <point x="605" y="1451"/>
      <point x="630" y="1447"/>
      <point x="648" y="1442" type="curve"/>
      <point x="673" y="1605" type="line"/>
      <point x="654" y="1611"/>
      <point x="612" y="1618"/>
      <point x="568" y="1618" type="curve" smooth="yes"/>
      <point x="300" y="1618"/>
      <point x="245" y="1409"/>
      <point x="245" y="1136" type="curve" smooth="yes"/>
      <point x="245" y="819"/>
      <point x="328" y="455"/>
      <point x="328" y="151" type="curve" smooth="yes"/>
      <point x="328" y="-55"/>
      <point x="306" y="-155"/>
    </contour>
  </outline>
</glyph>
<glyph name="notequal" format="1">
  <advance width="1042"/>
  <unicode hex="2260"/>
  <outline>
    <contour>
      <point x="70" y="370" type="line" name="hr00"/>
      <point x="270" y="370" type="line"/>
      <point x="118" y="114" type="line"/>
      <point x="267" y="114" type="line"/>
      <point x="419" y="370" type="line"/>
      <point x="972" y="370" type="line"/>
      <point x="972" y="529" type="line"/>
      <point x="509" y="529" type="line"/>
      <point x="682" y="823" type="line"/>
      <point x="972" y="823" type="line"/>
      <point x="972" y="982" type="line"/>
      <point x="772" y="982" type="line"/>
      <point x="925" y="1238" type="line"/>
      <point x="775" y="1238" type="line"/>
      <point x="623" y="982" type="line"/>
      <point x="70" y="982" type="line"/>
      <point x="70" y="823" type="line"/>
      <point x="533" y="823" type="line"/>
      <point x="360" y="529" type="line"/>
      <point x="70" y="529" type="line"/>
    </contour>
  </outline>
</glyph>
<glyph name="triagdn" format="1">
  <advance width="1185"/>
  <unicode hex="25BC"/>
  <outline>
    <contour>
      <point x="590" y="53" type="line"/>
      <point x="598" y="53" type="line"/>
      <point x="1141" y="1085" type="line"/>
      <point x="1141" y="1089" type="line"/>
      <point x="44" y="1089" type="line"/>
      <point x="44" y="1085" type="line"/>
    </contour>
  </outline>
</glyph>
<glyph name="whitedownpointingtriangle" format="1">
  <advance width="1187"/>
  <unicode hex="25BD"/>
  <outline>
    <contour>
      <point x="309" y="939" type="line"/>
      <point x="881" y="939" type="line"/>
      <point x="594" y="374" type="line"/>
    </contour>
    <contour>
      <point x="44" y="1090" type="line"/>
      <point x="44" y="1086" type="line"/>
      <point x="590" y="50" type="line"/>
      <point x="598" y="50" type="line"/>
      <point x="1142" y="1086" type="line"/>
      <point x="1142" y="1090" type="line"/>
    </contour>
  </outline>
</glyph>
<glyph name="bh_r_ya-deva" format="1">
  <advance width="1971"/>
  <outline>
    <contour>
      <point x="1045" y="416" type="line"/>
      <point x="909" y="529" type="line"/>
      <point x="271" y="82" type="line"/>
      <point x="397" y="-70" type="line"/>
    </contour>
    <contour>
      <point x="173" y="1307"/>
      <point x="126" y="1299"/>
      <point x="77" y="1281" type="curve"/>
      <point x="101" y="1105" type="line"/>
      <point x="135" y="1112"/>
      <point x="168" y="1118"/>
      <point x="197" y="1118" type="curve" smooth="yes"/>
      <point x="245" y="1119"/>
      <point x="275" y="1099"/>
      <point x="275" y="1035" type="curve" smooth="yes"/>
      <point x="275" y="548" type="line"/>
      <point x="485" y="548" type="line"/>
      <point x="485" y="1032" type="line" smooth="yes"/>
      <point x="485" y="1168"/>
      <point x="464" y="1307"/>
      <point x="239" y="1307" type="curve" smooth="yes"/>
    </contour>
    <contour>
      <point x="318" y="661" type="line"/>
      <point x="131" y="639" type="line"/>
      <point x="131" y="495" type="line"/>
      <point x="316" y="289" type="line"/>
      <point x="455" y="289"/>
      <point x="484" y="357"/>
      <point x="484" y="437" type="curve" smooth="yes"/>
      <point x="484" y="661" type="line"/>
    </contour>
    <contour>
      <point x="280" y="657" type="line"/>
      <point x="280" y="471" type="line"/>
      <point x="1026" y="471" type="line"/>
      <point x="1026" y="657" type="line"/>
    </contour>
    <contour>
      <point x="684" y="1287" type="line"/>
      <point x="684" y="1104" type="line"/>
      <point x="1262" y="1104" type="line"/>
      <point x="1262" y="1287" type="line"/>
    </contour>
    <component base="ya-deva" xOffset="808"/>
    <contour>
      <point x="1036" y="82" type="move" name="nukta"/>
    </contour>
    <contour>
      <point x="1694" y="1167" type="move" name="top"/>
    </contour>
    <contour>
      <point x="1397" y="1167" type="move" name="topcandra"/>
    </contour>
    <contour>
      <point x="1694" y="27" type="move" name="bottom"/>
    </contour>
  </outline>
</glyph>
<glyph name="d_dha-deva" format="1">
  <advance width="1300"/>
  <outline>
    <contour>
      <point x="-19" y="1287" type="line"/>
      <point x="-19" y="1104" type="line"/>
      <point x="1337" y="1104" type="line"/>
      <point x="1337" y="1287" type="line"/>
    </contour>
    <contour>
      <point x="902" y="1134" type="line"/>
      <point x="902" y="840" type="line"/>
      <point x="1043" y="870" type="line"/>
      <point x="955" y="899"/>
      <point x="885" y="908"/>
      <point x="831" y="908" type="curve" smooth="yes"/>
      <point x="488" y="908"/>
      <point x="350" y="745"/>
      <point x="350" y="502" type="curve" smooth="yes"/>
      <point x="350" y="248"/>
      <point x="505" y="58"/>
      <point x="845" y="58" type="curve" smooth="yes"/>
      <point x="951" y="58"/>
      <point x="1036" y="78"/>
      <point x="1121" y="134" type="curve" smooth="yes"/>
      <point x="1179" y="174"/>
      <point x="1220" y="259"/>
      <point x="1220" y="323" type="curve" smooth="yes"/>
      <point x="1220" y="432"/>
      <point x="1115" y="508"/>
      <point x="1001" y="537" type="curve"/>
      <point x="886" y="450" type="line"/>
      <point x="989" y="231" type="line"/>
      <point x="1087" y="326" type="line"/>
      <point x="988" y="260"/>
      <point x="941" y="233"/>
      <point x="827" y="233" type="curve" smooth="yes"/>
      <point x="655" y="233"/>
      <point x="568" y="296"/>
      <point x="568" y="474" type="curve" smooth="yes"/>
      <point x="568" y="681"/>
      <point x="684" y="721"/>
      <point x="889" y="721" type="curve" smooth="yes"/>
      <point x="997" y="721"/>
      <point x="1050" y="717"/>
      <point x="1113" y="713" type="curve"/>
      <point x="1113" y="1134" type="line"/>
    </contour>
    <contour>
      <point x="144" y="415"/>
      <point x="54" y="296"/>
      <point x="53" y="181" type="curve" smooth="yes"/>
      <point x="51" y="13"/>
      <point x="162" y="-81"/>
      <point x="334" y="-92" type="curve" smooth="yes"/>
      <point x="377" y="-95"/>
      <point x="424" y="-89"/>
      <point x="475" y="-80" type="curve"/>
      <point x="534" y="30" type="line"/>
      <point x="464" y="31"/>
      <point x="399" y="36"/>
      <point x="353" y="49" type="curve" smooth="yes"/>
      <point x="276" y="69"/>
      <point x="232" y="130"/>
      <point x="232" y="187" type="curve" smooth="yes"/>
      <point x="232" y="237"/>
      <point x="259" y="285"/>
      <point x="311" y="327" type="curve"/>
      <point x="257" y="455" type="line"/>
    </contour>
    <contour>
      <point x="1033" y="216" type="line"/>
      <point x="1224" y="-171" type="line"/>
      <point x="1371" y="-73" type="line"/>
      <point x="1140" y="272" type="line"/>
    </contour>
    <contour>
      <point x="985" y="-91"/>
      <point x="861" y="-260"/>
      <point x="699" y="-260" type="curve" smooth="yes"/>
      <point x="634" y="-260"/>
      <point x="577" y="-223"/>
      <point x="577" y="-136" type="curve" smooth="yes"/>
      <point x="577" y="-22"/>
      <point x="680" y="46"/>
      <point x="757" y="86" type="curve"/>
      <point x="706" y="227" type="line"/>
      <point x="596" y="175"/>
      <point x="381" y="74"/>
      <point x="381" y="-137" type="curve" smooth="yes"/>
      <point x="381" y="-322"/>
      <point x="525" y="-432"/>
      <point x="706" y="-432" type="curve" smooth="yes"/>
      <point x="1061" y="-432"/>
      <point x="1162" y="-27"/>
      <point x="1138" y="207" type="curve"/>
      <point x="1004" y="259" type="line"/>
    </contour>
    <contour>
      <point x="1010" y="1167" type="move" name="top"/>
    </contour>
    <contour>
      <point x="780" y="-378" type="move" name="bottom"/>
    </contour>
    <contour>
      <point x="684" y="1167" type="move" name="topcandra"/>
    </contour>
  </outline>
</glyph>
<glyph name="g_r_ya-deva" format="1">
  <advance width="1816"/>
  <outline>
    <contour>
      <point x="907" y="443" type="line"/>
      <point x="794" y="552" type="line"/>
      <point x="202" y="127" type="line"/>
      <point x="328" y="-24" type="line"/>
    </contour>
    <contour>
      <point x="272" y="729" type="line"/>
      <point x="84" y="706" type="line"/>
      <point x="84" y="563" type="line"/>
      <point x="269" y="357" type="line"/>
      <point x="409" y="358"/>
      <point x="437" y="424"/>
      <point x="437" y="506" type="curve" smooth="yes"/>
      <point x="437" y="729" type="line"/>
    </contour>
    <contour>
      <point x="227" y="1176" type="line"/>
      <point x="227" y="465" type="line"/>
      <point x="437" y="653" type="line"/>
      <point x="437" y="1176" type="line"/>
    </contour>
    <contour>
      <point x="-19" y="1287" type="line"/>
      <point x="-19" y="1104" type="line"/>
      <point x="719" y="1104" type="line"/>
      <point x="719" y="1287" type="line"/>
    </contour>
    <component base="ya-deva" xOffset="652"/>
    <contour>
      <point x="940" y="92" type="move" name="nukta"/>
    </contour>
    <contour>
      <point x="1475" y="1167" type="move" name="top"/>
    </contour>
    <contour>
      <point x="1222" y="1167" type="move" name="topcandra"/>
    </contour>
    <contour>
      <point x="1475" y="27" type="move" name="bottom"/>
    </contour>
  </outline>
</glyph>
<glyph name="ga_na-deva" format="1">
  <advance width="1145"/>
  <outline>
    <contour>
      <point x="915" y="449" type="line"/>
      <point x="779" y="560" type="line"/>
      <point x="211" y="151" type="line"/>
      <point x="285" y="21" type="line"/>
      <point x="511" y="-58" type="line"/>
      <point x="554" y="-22"/>
      <point x="570" y="13"/>
      <point x="570" y="45" type="curve" smooth="yes"/>
      <point x="570" y="73"/>
      <point x="560" y="100"/>
      <point x="544" y="123" type="curve" smooth="yes"/>
      <point x="502" y="184" type="line"/>
      <point x="489" y="124" type="line"/>
    </contour>
    <component base="ga-deva" xOffset="-1"/>
    <contour>
      <point x="868" y="1167" type="move" name="top"/>
    </contour>
    <contour>
      <point x="868" y="27" type="move" name="bottom"/>
    </contour>
    <contour>
      <point x="611" y="1167" type="move" name="topcandra"/>
    </contour>
  </outline>
</glyph>
<glyph name="h-deva" format="1">
  <advance width="870"/>
  <outline>
    <contour>
      <point x="342" y="545"/>
      <point x="92" y="465"/>
      <point x="92" y="201" type="curve" smooth="yes"/>
      <point x="92" y="-10"/>
      <point x="276" y="-269"/>
      <point x="834" y="-368" type="curve"/>
      <point x="881" y="-204" type="line"/>
      <point x="651" y="-162"/>
      <point x="312" y="-62"/>
      <point x="303" y="170" type="curve" smooth="yes"/>
      <point x="299" y="272"/>
      <point x="349" y="360"/>
      <point x="562" y="359" type="curve" smooth="yes"/>
      <point x="1129" y="359" type="line"/>
      <point x="1129" y="545" type="line"/>
      <point x="558" y="545" type="line" smooth="yes"/>
    </contour>
    <contour>
      <point x="559" y="1156" type="line"/>
      <point x="559" y="932" type="line"/>
      <point x="414" y="932" type="line" smooth="yes"/>
      <point x="201" y="932"/>
      <point x="118" y="836"/>
      <point x="118" y="719" type="curve" smooth="yes"/>
      <point x="118" y="622"/>
      <point x="179" y="527"/>
      <point x="286" y="405" type="curve"/>
      <point x="413" y="457" type="line"/>
      <point x="358" y="549"/>
      <point x="332" y="624"/>
      <point x="333" y="669" type="curve" smooth="yes"/>
      <point x="333" y="710"/>
      <point x="356" y="745"/>
      <point x="443" y="745" type="curve" smooth="yes"/>
      <point x="769" y="745" type="line"/>
      <point x="769" y="1156" type="line"/>
    </contour>
    <contour>
      <point x="-19" y="1287" type="line"/>
      <point x="-19" y="1104" type="line"/>
      <point x="890" y="1104" type="line"/>
      <point x="890" y="1287" type="line"/>
    </contour>
  </outline>
</glyph>
<glyph name="iMatra-deva.0" format="1">
  <advance width="561"/>
  <outline>
    <contour>
      <point x="451" y="1204" type="line"/>
      <point x="311" y="1339"/>
      <point x="285" y="1396"/>
      <point x="285" y="1474" type="curve" smooth="yes"/>
      <point x="285" y="1563"/>
      <point x="337" y="1614"/>
      <point x="498" y="1614" type="curve" smooth="yes"/>
      <point x="741" y="1614"/>
      <point x="1000" y="1498"/>
      <point x="1222" y="1356" type="curve"/>
      <point x="1296" y="1477" type="line"/>
      <point x="1027" y="1684"/>
      <point x="718" y="1808"/>
      <point x="464" y="1808" type="curve" smooth="yes"/>
      <point x="279" y="1808"/>
      <point x="68" y="1741"/>
      <point x="68" y="1523" type="curve" smooth="yes"/>
      <point x="68" y="1403"/>
      <point x="130" y="1305"/>
      <point x="271" y="1197" type="curve"/>
    </contour>
    <contour>
      <point x="385" y="1" type="line"/>
      <point x="385" y="1217" type="line"/>
      <point x="175" y="1217" type="line"/>
      <point x="175" y="1" type="line"/>
    </contour>
    <contour>
      <point x="586" y="1104" type="line"/>
      <point x="586" y="1287" type="line"/>
      <point x="-19" y="1287" type="line"/>
      <point x="-19" y="1104" type="line"/>
    </contour>
    <contour>
      <point x="1259" y="1416" type="move" name="imatra"/>
    </contour>
    <contour>
      <point x="1446" y="1350" type="move" name="topcandra"/>
    </contour>
  </outline>
</glyph>
<glyph name="j_j_nya-deva" format="1">
  <advance width="3328"/>
  <outline>
    <contour>
      <point x="2363" y="936"/>
      <point x="2310" y="927"/>
      <point x="2270" y="907" type="curve"/>
      <point x="2302" y="734" type="line"/>
      <point x="2334" y="742"/>
      <point x="2368" y="747"/>
      <point x="2419" y="747" type="curve" smooth="yes"/>
      <point x="2513" y="747"/>
      <point x="2581" y="709"/>
      <point x="2584" y="580" type="curve" smooth="yes"/>
      <point x="2587" y="438"/>
      <point x="2498" y="388"/>
      <point x="2397" y="388" type="curve" smooth="yes"/>
      <point x="2219" y="388"/>
      <point x="2101" y="519"/>
      <point x="2041" y="908" type="curve"/>
      <point x="1881" y="854" type="line"/>
      <point x="1947" y="315"/>
      <point x="2194" y="200"/>
      <point x="2403" y="200" type="curve" smooth="yes"/>
      <point x="2629" y="200"/>
      <point x="2776" y="327"/>
      <point x="2776" y="569" type="curve" smooth="yes"/>
      <point x="2776" y="824"/>
      <point x="2612" y="936"/>
      <point x="2422" y="936" type="curve" smooth="yes"/>
    </contour>
    <contour>
      <point x="503" y="761" type="line"/>
      <point x="619" y="708"/>
      <point x="663" y="633"/>
      <point x="663" y="545" type="curve" smooth="yes"/>
      <point x="663" y="452"/>
      <point x="611" y="395"/>
      <point x="511" y="394" type="curve" smooth="yes"/>
      <point x="267" y="389"/>
      <point x="234" y="731"/>
      <point x="210" y="905" type="curve"/>
      <point x="45" y="882" type="line"/>
      <point x="64" y="490"/>
      <point x="183" y="197"/>
      <point x="526" y="197" type="curve" smooth="yes"/>
      <point x="729" y="197"/>
      <point x="868" y="312"/>
      <point x="868" y="495" type="curve" smooth="yes"/>
      <point x="868" y="637"/>
      <point x="802" y="708"/>
      <point x="659" y="782" type="curve"/>
      <point x="571" y="908" type="line"/>
    </contour>
    <contour>
      <point x="-19" y="1287" type="line"/>
      <point x="-19" y="1104" type="line"/>
      <point x="952" y="1104" type="line"/>
      <point x="952" y="1287" type="line"/>
    </contour>
    <contour>
      <point x="571" y="908" type="line"/>
      <point x="638" y="730" type="line"/>
      <point x="1128" y="730" type="line"/>
      <point x="1128" y="908" type="line"/>
    </contour>
    <contour>
      <point x="1429" y="761" type="line"/>
      <point x="1546" y="708"/>
      <point x="1589" y="633"/>
      <point x="1589" y="545" type="curve" smooth="yes"/>
      <point x="1589" y="452"/>
      <point x="1538" y="395"/>
      <point x="1438" y="394" type="curve" smooth="yes"/>
      <point x="1193" y="389"/>
      <point x="1160" y="731"/>
      <point x="1136" y="908" type="curve"/>
      <point x="971" y="885" type="line"/>
      <point x="990" y="490"/>
      <point x="1110" y="197"/>
      <point x="1452" y="197" type="curve" smooth="yes"/>
      <point x="1655" y="197"/>
      <point x="1794" y="312"/>
      <point x="1794" y="495" type="curve" smooth="yes"/>
      <point x="1794" y="637"/>
      <point x="1728" y="708"/>
      <point x="1585" y="782" type="curve"/>
      <point x="1497" y="908" type="line"/>
    </contour>
    <contour>
      <point x="898" y="1287" type="line"/>
      <point x="898" y="1104" type="line"/>
      <point x="1868" y="1104" type="line"/>
      <point x="1868" y="1287" type="line"/>
    </contour>
    <contour>
      <point x="1497" y="908" type="line"/>
      <point x="1573" y="721" type="line"/>
      <point x="2040" y="721" type="line"/>
      <point x="2040" y="908" type="line"/>
    </contour>
    <contour>
      <point x="2973" y="687"/>
      <point x="2788" y="647"/>
      <point x="2671" y="661" type="curve"/>
      <point x="2722" y="489" type="line"/>
      <point x="2826" y="469"/>
      <point x="3032" y="515"/>
      <point x="3098" y="577" type="curve"/>
      <point x="3091" y="775" type="line"/>
    </contour>
    <contour>
      <point x="2941" y="1199" type="line"/>
      <point x="2941" y="0" type="line"/>
      <point x="3151" y="0" type="line"/>
      <point x="3151" y="1199" type="line"/>
    </contour>
    <contour>
      <point x="1825" y="1287" type="line"/>
      <point x="1825" y="1104" type="line"/>
      <point x="3347" y="1104" type="line"/>
      <point x="3347" y="1287" type="line"/>
    </contour>
    <contour>
      <point x="2041" y="82" type="move" name="nukta"/>
    </contour>
    <contour>
      <point x="3046" y="1167" type="move" name="top"/>
    </contour>
    <contour>
      <point x="2595" y="1167" type="move" name="topcandra"/>
    </contour>
    <contour>
      <point x="3046" y="27" type="move" name="bottom"/>
    </contour>
  </outline>
</glyph>
<glyph name="jh-deva" format="1">
  <advance width="1068"/>
  <outline>
    <contour>
      <point x="1150" y="547"/>
      <point x="1026" y="508"/>
      <point x="827" y="504" type="curve"/>
      <point x="902" y="362" type="line"/>
      <point x="1043" y="341"/>
      <point x="1195" y="373"/>
      <point x="1337" y="467" type="curve"/>
      <point x="1305" y="651" type="line"/>
    </contour>
    <contour>
      <point x="898" y="1287" type="line"/>
      <point x="898" y="1104" type="line"/>
      <point x="1085" y="1104" type="line"/>
      <point x="1085" y="1287" type="line"/>
    </contour>
    <component base="i-deva"/>
  </outline>
</glyph>
<glyph name="k_ka-deva" format="1">
  <advance width="2668"/>
  <outline>
    <component base="k-deva"/>
    <component base="ka-deva" xOffset="1138"/>
    <contour>
      <point x="1927" y="1167" type="move" name="top"/>
    </contour>
    <contour>
      <point x="1942" y="27" type="move" name="bottom"/>
    </contour>
    <contour>
      <point x="1931" y="1167" type="move" name="topcandra"/>
    </contour>
  </outline>
</glyph>
<glyph name="n_t_ra-deva" format="1">
  <advance width="1634"/>
  <outline>
    <contour>
      <point x="1313" y="469" type="line"/>
      <point x="1318" y="597" type="line"/>
      <point x="1076" y="913"/>
      <point x="971" y="928"/>
      <point x="859" y="928" type="curve" smooth="yes"/>
      <point x="759" y="928"/>
      <point x="630" y="857"/>
      <point x="575" y="759" type="curve"/>
      <point x="665" y="589" type="line"/>
      <point x="724" y="676"/>
      <point x="794" y="731"/>
      <point x="889" y="730" type="curve" smooth="yes"/>
      <point x="970" y="729"/>
      <point x="1042" y="684"/>
      <point x="1195" y="525" type="curve"/>
      <point x="1195" y="589" type="line"/>
      <point x="692" y="220" type="line"/>
      <point x="817" y="68" type="line"/>
    </contour>
    <contour>
      <point x="1459" y="0" type="line"/>
      <point x="1459" y="1148" type="line"/>
      <point x="1249" y="1148" type="line"/>
      <point x="1249" y="0" type="line"/>
    </contour>
    <contour>
      <point x="45" y="775" type="line"/>
      <point x="45" y="611" type="line"/>
      <point x="199" y="387" type="line"/>
      <point x="346" y="387"/>
      <point x="369" y="468"/>
      <point x="369" y="568" type="curve" smooth="yes"/>
      <point x="369" y="775" type="line"/>
    </contour>
    <contour>
      <point x="170" y="775" type="line"/>
      <point x="170" y="589" type="line"/>
      <point x="664" y="589" type="line"/>
      <point x="761" y="775" type="line"/>
    </contour>
    <contour>
      <point x="-19" y="1287" type="line"/>
      <point x="-19" y="1104" type="line"/>
      <point x="1653" y="1104" type="line"/>
      <point x="1653" y="1287" type="line"/>
    </contour>
    <contour>
      <point x="1304" y="1167" type="move" name="top"/>
    </contour>
    <contour>
      <point x="1304" y="27" type="move" name="bottom"/>
    </contour>
    <contour>
      <point x="1112" y="1167" type="move" name="topcandra"/>
    </contour>
  </outline>
</glyph>
<glyph name="na-deva.post2" format="1">
  <advance width="382"/>
  <outline>
    <contour>
      <point x="600" y="413" type="line"/>
      <point x="505" y="555" type="line"/>
      <point x="-56" y="151" type="line"/>
      <point x="17" y="21" type="line"/>
      <point x="243" y="-58" type="line"/>
      <point x="286" y="-22"/>
      <point x="303" y="13"/>
      <point x="303" y="45" type="curve" smooth="yes"/>
      <point x="303" y="73"/>
      <point x="292" y="100"/>
      <point x="277" y="123" type="curve" smooth="yes"/>
      <point x="235" y="184" type="line"/>
      <point x="221" y="124" type="line"/>
    </contour>
  </outline>
</glyph>
<glyph name="ng_k_ssa-deva" format="1">
  <advance width="1227"/>
  <outline>
    <contour>
      <point x="430" y="972" type="line" smooth="yes"/>
      <point x="242" y="972"/>
      <point x="158" y="910"/>
      <point x="158" y="776" type="curve" smooth="yes"/>
      <point x="158" y="662"/>
      <point x="218" y="544"/>
      <point x="286" y="487" type="curve"/>
      <point x="320" y="459"/>
      <point x="345" y="457"/>
      <point x="365" y="459" type="curve" smooth="yes"/>
      <point x="431" y="465"/>
      <point x="564" y="481"/>
      <point x="684" y="481" type="curve" smooth="yes"/>
      <point x="795" y="481"/>
      <point x="815" y="459"/>
      <point x="815" y="399" type="curve" smooth="yes"/>
      <point x="815" y="326"/>
      <point x="756" y="290"/>
      <point x="595" y="290" type="curve" smooth="yes"/>
      <point x="385" y="290"/>
      <point x="299" y="337"/>
      <point x="182" y="455" type="curve"/>
      <point x="78" y="353" type="line"/>
      <point x="212" y="189"/>
      <point x="397" y="121"/>
      <point x="585" y="117" type="curve" smooth="yes"/>
      <point x="821" y="114"/>
      <point x="1008" y="191"/>
      <point x="1008" y="421" type="curve" smooth="yes"/>
      <point x="1008" y="637"/>
      <point x="847" y="661"/>
      <point x="652" y="659" type="curve" smooth="yes"/>
      <point x="537" y="658"/>
      <point x="419" y="645"/>
      <point x="344" y="632" type="curve"/>
      <point x="363" y="619" type="line"/>
      <point x="356" y="621"/>
      <point x="339" y="671"/>
      <point x="339" y="715" type="curve" smooth="yes"/>
      <point x="339" y="778"/>
      <point x="366" y="794"/>
      <point x="486" y="794" type="curve" smooth="yes"/>
      <point x="821" y="794" type="line"/>
      <point x="798" y="972" type="line"/>
    </contour>
    <contour>
      <point x="418" y="-558" type="line"/>
      <point x="582" y="-819" type="line"/>
      <point x="715" y="-723" type="line"/>
      <point x="550" y="-526" type="line"/>
    </contour>
    <contour>
      <point x="348" y="-427" type="line"/>
      <point x="426" y="-569" type="line"/>
      <point x="497" y="-639" type="line"/>
      <point x="566" y="-602"/>
      <point x="619" y="-569"/>
      <point x="619" y="-511" type="curve" smooth="yes"/>
      <point x="621" y="-445"/>
      <point x="565" y="-396"/>
      <point x="455" y="-361" type="curve"/>
    </contour>
    <contour>
      <point x="217" y="270"/>
      <point x="98" y="198"/>
      <point x="98" y="64" type="curve" smooth="yes"/>
      <point x="98" y="-27"/>
      <point x="138" y="-98"/>
      <point x="246" y="-174" type="curve"/>
      <point x="384" y="-89" type="line"/>
      <point x="284" y="-32"/>
      <point x="269" y="21"/>
      <point x="269" y="63" type="curve" smooth="yes"/>
      <point x="269" y="109"/>
      <point x="304" y="146"/>
      <point x="365" y="146" type="curve" smooth="yes"/>
      <point x="433" y="146"/>
      <point x="465" y="119"/>
      <point x="465" y="64" type="curve" smooth="yes"/>
      <point x="465" y="1"/>
      <point x="422" y="-40"/>
      <point x="328" y="-91" type="curve" smooth="yes"/>
      <point x="127" y="-199"/>
      <point x="32" y="-256"/>
      <point x="32" y="-408" type="curve" smooth="yes"/>
      <point x="32" y="-597"/>
      <point x="189" y="-678"/>
      <point x="349" y="-678" type="curve" smooth="yes"/>
      <point x="451" y="-678"/>
      <point x="532" y="-635"/>
      <point x="567" y="-592" type="curve"/>
      <point x="511" y="-458" type="line"/>
      <point x="483" y="-497"/>
      <point x="426" y="-527"/>
      <point x="355" y="-527" type="curve" smooth="yes"/>
      <point x="276" y="-527"/>
      <point x="224" y="-486"/>
      <point x="224" y="-410" type="curve" smooth="yes"/>
      <point x="224" y="-331"/>
      <point x="260" y="-296"/>
      <point x="454" y="-196" type="curve"/>
      <point x="489" y="-160" type="line"/>
      <point x="574" y="-111"/>
      <point x="639" y="-30"/>
      <point x="639" y="58" type="curve" smooth="yes"/>
      <point x="639" y="168"/>
      <point x="546" y="270"/>
      <point x="363" y="270" type="curve" smooth="yes"/>
    </contour>
    <contour>
      <point x="325" y="-229" type="line"/>
      <point x="453" y="-311"/>
      <point x="596" y="-343"/>
      <point x="710" y="-343" type="curve" smooth="yes"/>
      <point x="765" y="-343"/>
      <point x="829" y="-340"/>
      <point x="904" y="-324" type="curve"/>
      <point x="896" y="-146" type="line"/>
      <point x="832" y="-167"/>
      <point x="769" y="-180"/>
      <point x="709" y="-181" type="curve" smooth="yes"/>
      <point x="623" y="-182"/>
      <point x="530" y="-167"/>
      <point x="443" y="-122" type="curve"/>
    </contour>
    <contour>
      <point x="772" y="302" type="line"/>
      <point x="772" y="-651" type="line"/>
      <point x="963" y="-651" type="line"/>
      <point x="963" y="302" type="line"/>
    </contour>
    <contour>
      <point x="992" y="813"/>
      <point x="960" y="782"/>
      <point x="960" y="708" type="curve" smooth="yes"/>
      <point x="960" y="636"/>
      <point x="992" y="605"/>
      <point x="1065" y="605" type="curve" smooth="yes"/>
      <point x="1139" y="605"/>
      <point x="1170" y="636"/>
      <point x="1170" y="708" type="curve" smooth="yes"/>
      <point x="1170" y="782"/>
      <point x="1139" y="813"/>
      <point x="1065" y="813" type="curve" smooth="yes"/>
    </contour>
    <contour>
      <point x="697" y="1232" type="line"/>
      <point x="697" y="794" type="line"/>
      <point x="899" y="794" type="line"/>
      <point x="899" y="1232" type="line"/>
    </contour>
    <contour>
      <point x="-19" y="1286" type="line"/>
      <point x="-19" y="1104" type="line"/>
      <point x="1246" y="1104" type="line"/>
      <point x="1246" y="1286" type="line"/>
    </contour>
    <contour>
      <point x="796" y="1167" type="move" name="top"/>
    </contour>
    <contour>
      <point x="868" y="-623" type="move" name="bottom"/>
    </contour>
    <contour>
      <point x="614" y="1167" type="move" name="topcandra"/>
    </contour>
  </outline>
</glyph>
<glyph name="nine.dnom" format="1">
  <advance width="789"/>
  <outline>
    <contour>
      <point x="184" y="155" type="curve" name="hr00"/>
      <point x="117" y="45" type="line"/>
      <point x="164" y="9"/>
      <point x="227" y="-25"/>
      <point x="328" y="-25" type="curve" smooth="yes"/>
      <point x="540" y="-25"/>
      <point x="686" y="131"/>
      <point x="686" y="414" type="curve" smooth="yes"/>
      <point x="686" y="666"/>
      <point x="565" y="823"/>
      <point x="364" y="823" type="curve" smooth="yes"/>
      <point x="211" y="823"/>
      <point x="92" y="705"/>
      <point x="92" y="548" type="curve" smooth="yes"/>
      <point x="92" y="396"/>
      <point x="184" y="294"/>
      <point x="342" y="294" type="curve" smooth="yes"/>
      <point x="414" y="294"/>
      <point x="478" y="321"/>
      <point x="531" y="372" type="curve"/>
      <point x="518" y="195"/>
      <point x="439" y="104"/>
      <point x="320" y="104" type="curve" smooth="yes"/>
      <point x="265" y="104"/>
      <point x="223" y="127"/>
    </contour>
    <contour>
      <point x="531" y="487" type="curve"/>
      <point x="479" y="432"/>
      <point x="431" y="410"/>
      <point x="376" y="410" type="curve" smooth="yes"/>
      <point x="290" y="410"/>
      <point x="242" y="467"/>
      <point x="242" y="552" type="curve" smooth="yes"/>
      <point x="242" y="640"/>
      <point x="296" y="695"/>
      <point x="368" y="695" type="curve" smooth="yes"/>
      <point x="453" y="695"/>
      <point x="518" y="629"/>
    </contour>
  </outline>
</glyph>
<glyph name="nine.tnum" format="1">
  <advance width="1042"/>
  <outline>
    <contour>
      <point x="234" y="84" type="curve" name="hr00"/>
      <point x="124" y="-54" type="line"/>
      <point x="213" y="-140"/>
      <point x="312" y="-189"/>
      <point x="463" y="-189" type="curve" smooth="yes"/>
      <point x="746" y="-189"/>
      <point x="938" y="39"/>
      <point x="938" y="535" type="curve" smooth="yes"/>
      <point x="938" y="1013"/>
      <point x="753" y="1203"/>
      <point x="477" y="1203" type="curve" smooth="yes"/>
      <point x="240" y="1203"/>
      <point x="61" y="1024"/>
      <point x="61" y="766" type="curve" smooth="yes"/>
      <point x="61" y="496"/>
      <point x="214" y="333"/>
      <point x="440" y="333" type="curve" smooth="yes"/>
      <point x="551" y="333"/>
      <point x="663" y="384"/>
      <point x="734" y="483" type="curve"/>
      <point x="728" y="111"/>
      <point x="621" y="-9"/>
      <point x="452" y="-9" type="curve" smooth="yes"/>
      <point x="372" y="-9"/>
      <point x="277" y="32"/>
    </contour>
    <contour>
      <point x="729" y="642" type="curve"/>
      <point x="652" y="529"/>
      <point x="555" y="493"/>
      <point x="479" y="493" type="curve" smooth="yes"/>
      <point x="337" y="493"/>
      <point x="265" y="609"/>
      <point x="265" y="766" type="curve" smooth="yes"/>
      <point x="265" y="929"/>
      <point x="363" y="1035"/>
      <point x="480" y="1035" type="curve" smooth="yes"/>
      <point x="633" y="1035"/>
      <point x="723" y="918"/>
    </contour>
  </outline>
</glyph>
<glyph name="nna_ra-deva" format="1">
  <advance width="1546"/>
  <outline>
    <contour>
      <point x="1326" y="419" type="line"/>
      <point x="1190" y="529" type="line"/>
      <point x="620" y="119" type="line"/>
      <point x="746" y="-33" type="line"/>
    </contour>
    <component base="nna-deva" xOffset="-2"/>
    <contour>
      <point x="1270" y="1167" type="move" name="top"/>
    </contour>
    <contour>
      <point x="1270" y="27" type="move" name="bottom"/>
    </contour>
    <contour>
      <point x="802" y="1167" type="move" name="topcandra"/>
    </contour>
  </outline>
</glyph>
<glyph name="one.dnom" format="1">
  <advance width="729"/>
  <outline>
    <contour>
      <point x="155" y="610" type="line" name="hr00"/>
      <point x="332" y="610" type="line"/>
      <point x="332" y="0" type="line"/>
      <point x="498" y="0" type="line"/>
      <point x="498" y="799" type="line"/>
      <point x="365" y="799" type="line"/>
      <point x="305" y="756"/>
      <point x="252" y="731"/>
      <point x="155" y="715" type="curve"/>
    </contour>
  </outline>
</glyph>
<glyph name="one.tnum" format="1">
  <advance width="1042"/>
  <outline>
    <contour>
      <point x="448" y="175" type="line" name="hr00"/>
      <point x="155" y="175" type="line"/>
      <point x="155" y="0" type="line"/>
      <point x="926" y="0" type="line"/>
      <point x="926" y="175" type="line"/>
      <point x="668" y="175" type="line"/>
      <point x="668" y="1179" type="line"/>
      <point x="502" y="1179" type="line"/>
      <point x="423" y="1131"/>
      <point x="335" y="1097"/>
      <point x="207" y="1074" type="curve"/>
      <point x="207" y="934" type="line"/>
      <point x="448" y="947" type="line"/>
    </contour>
  </outline>
</glyph>
<glyph name="pa_ta-deva" format="1">
  <advance width="1167"/>
  <outline>
    <contour>
      <point x="162" y="1144" type="line"/>
      <point x="162" y="910" type="line" smooth="yes"/>
      <point x="162" y="762"/>
      <point x="203" y="648"/>
      <point x="293" y="609" type="curve"/>
      <point x="304" y="636" type="line"/>
      <point x="187" y="606"/>
      <point x="152" y="505"/>
      <point x="152" y="430" type="curve" smooth="yes"/>
      <point x="152" y="245"/>
      <point x="305" y="36"/>
      <point x="370" y="-59" type="curve"/>
      <point x="530" y="49" type="line"/>
      <point x="453" y="155"/>
      <point x="359" y="310"/>
      <point x="359" y="402" type="curve" smooth="yes"/>
      <point x="359" y="487"/>
      <point x="417" y="510"/>
      <point x="507" y="508" type="curve" smooth="yes"/>
      <point x="927" y="508" type="line"/>
      <point x="927" y="706" type="line"/>
      <point x="489" y="706" type="line" smooth="yes"/>
      <point x="402" y="704"/>
      <point x="370" y="781"/>
      <point x="370" y="908" type="curve" smooth="yes"/>
      <point x="370" y="1144" type="line"/>
    </contour>
    <contour>
      <point x="781" y="1199" type="line"/>
      <point x="781" y="0" type="line"/>
      <point x="992" y="0" type="line"/>
      <point x="992" y="1199" type="line"/>
    </contour>
    <contour>
      <point x="-19" y="1287" type="line"/>
      <point x="-19" y="1104" type="line"/>
      <point x="1186" y="1104" type="line"/>
      <point x="1186" y="1287" type="line"/>
    </contour>
    <contour>
      <point x="887" y="1167" type="move" name="top"/>
    </contour>
    <contour>
      <point x="887" y="27" type="move" name="bottom"/>
    </contour>
    <contour>
      <point x="593" y="1167" type="move" name="topcandra"/>
    </contour>
  </outline>
</glyph>
<glyph name="parenleft.dnom" format="1">
  <advance width="509"/>
  <outline>
    <contour>
      <point x="131" y="400" type="curve" name="hr00" smooth="yes"/>
      <point x="131" y="163"/>
      <point x="197" y="1"/>
      <point x="314" y="-170" type="curve"/>
      <point x="433" y="-118" type="line"/>
      <point x="333" y="48"/>
      <point x="290" y="217"/>
      <point x="290" y="400" type="curve" smooth="yes"/>
      <point x="290" y="582"/>
      <point x="333" y="753"/>
      <point x="433" y="914" type="curve"/>
      <point x="314" y="967" type="line"/>
      <point x="197" y="796"/>
      <point x="131" y="635"/>
    </contour>
  </outline>
</glyph>
<glyph name="rakar-deva" format="1">
  <advance width="540"/>
  <outline>
    <contour>
      <point x="346" y="263" type="line"/>
      <point x="177" y="279" type="line"/>
      <point x="612" y="11" type="line"/>
      <point x="707" y="159" type="line"/>
      <point x="268" y="432" type="line"/>
      <point x="-167" y="124" type="line"/>
      <point x="-64" y="-18" type="line"/>
    </contour>
    <contour>
      <point x="270" y="383" type="move" name="_bottom"/>
    </contour>
    <contour>
      <point x="254" y="36" type="move" name="bottom"/>
    </contour>
  </outline>
</glyph>
<glyph name="reph-deva" format="1">
  <advance width="540"/>
  <outline>
    <contour>
      <point x="176" y="1750"/>
      <point x="64" y="1644"/>
      <point x="64" y="1513" type="curve" smooth="yes"/>
      <point x="64" y="1439"/>
      <point x="78" y="1344"/>
      <point x="184" y="1241" type="curve"/>
      <point x="284" y="1279" type="line"/>
      <point x="247" y="1329"/>
      <point x="225" y="1388"/>
      <point x="225" y="1456" type="curve" smooth="yes"/>
      <point x="225" y="1531"/>
      <point x="279" y="1570"/>
      <point x="397" y="1570" type="curve" smooth="yes"/>
      <point x="471" y="1570"/>
      <point x="525" y="1550"/>
      <point x="588" y="1515" type="curve"/>
      <point x="633" y="1676" type="line"/>
      <point x="570" y="1714"/>
      <point x="487" y="1750"/>
      <point x="361" y="1750" type="curve" smooth="yes"/>
    </contour>
    <contour>
      <point x="346" y="1607" type="move" name="topcandra"/>
    </contour>
    <contour>
      <point x="234" y="1167" type="move" name="_top"/>
    </contour>
  </outline>
</glyph>
<glyph name="six.numr" format="1">
  <advance width="789"/>
  <outline>
    <contour>
      <point x="602" y="1185" type="curve" name="hr00"/>
      <point x="668" y="1295" type="line"/>
      <point x="622" y="1331"/>
      <point x="558" y="1365"/>
      <point x="457" y="1365" type="curve" smooth="yes"/>
      <point x="246" y="1365"/>
      <point x="100" y="1210"/>
      <point x="100" y="927" type="curve" smooth="yes"/>
      <point x="100" y="674"/>
      <point x="222" y="517"/>
      <point x="421" y="517" type="curve" smooth="yes"/>
      <point x="576" y="517"/>
      <point x="694" y="637"/>
      <point x="694" y="794" type="curve" smooth="yes"/>
      <point x="694" y="944"/>
      <point x="601" y="1046"/>
      <point x="444" y="1046" type="curve" smooth="yes"/>
      <point x="373" y="1046"/>
      <point x="308" y="1021"/>
      <point x="255" y="970" type="curve"/>
      <point x="269" y="1146"/>
      <point x="348" y="1237"/>
      <point x="465" y="1237" type="curve" smooth="yes"/>
      <point x="521" y="1237"/>
      <point x="563" y="1214"/>
    </contour>
    <contour>
      <point x="543" y="787" type="curve" smooth="yes"/>
      <point x="543" y="700"/>
      <point x="489" y="646"/>
      <point x="416" y="646" type="curve" smooth="yes"/>
      <point x="333" y="646"/>
      <point x="268" y="714"/>
      <point x="255" y="854" type="curve"/>
      <point x="308" y="909"/>
      <point x="356" y="931"/>
      <point x="408" y="931" type="curve" smooth="yes"/>
      <point x="496" y="931"/>
      <point x="543" y="875"/>
    </contour>
  </outline>
</glyph>
<glyph name="six.pnum" format="1">
  <advance width="1104"/>
  <outline>
    <contour>
      <point x="847" y="1098" type="curve" name="hr00"/>
      <point x="963" y="1231" type="line"/>
      <point x="886" y="1313"/>
      <point x="783" y="1367"/>
      <point x="630" y="1367" type="curve" smooth="yes"/>
      <point x="365" y="1367"/>
      <point x="121" y="1158"/>
      <point x="121" y="642" type="curve" smooth="yes"/>
      <point x="121" y="202"/>
      <point x="325" y="-25"/>
      <point x="588" y="-25" type="curve" smooth="yes"/>
      <point x="809" y="-25"/>
      <point x="993" y="145"/>
      <point x="993" y="403" type="curve" smooth="yes"/>
      <point x="993" y="704"/>
      <point x="838" y="842"/>
      <point x="614" y="842" type="curve" smooth="yes"/>
      <point x="518" y="842"/>
      <point x="403" y="783"/>
      <point x="326" y="689" type="curve"/>
      <point x="331" y="1065"/>
      <point x="474" y="1187"/>
      <point x="642" y="1187" type="curve" smooth="yes"/>
      <point x="721" y="1187"/>
      <point x="798" y="1156"/>
    </contour>
    <contour>
      <point x="789" y="403" type="curve" smooth="yes"/>
      <point x="789" y="241"/>
      <point x="699" y="144"/>
      <point x="585" y="144" type="curve" smooth="yes"/>
      <point x="448" y="144"/>
      <point x="344" y="281"/>
      <point x="331" y="527" type="curve"/>
      <point x="408" y="639"/>
      <point x="498" y="683"/>
      <point x="574" y="683" type="curve" smooth="yes"/>
      <point x="711" y="683"/>
      <point x="789" y="582"/>
    </contour>
  </outline>
</glyph>
<glyph name="ss_ttha-deva" format="1">
  <advance width="994"/>
  <outline>
    <contour>
      <point x="775" y="-119"/>
      <point x="935" y="10"/>
      <point x="935" y="232" type="curve" smooth="yes"/>
      <point x="935" y="444"/>
      <point x="736" y="556"/>
      <point x="513" y="556" type="curve" smooth="yes"/>
      <point x="291" y="556"/>
      <point x="73" y="444"/>
      <point x="73" y="227" type="curve" smooth="yes"/>
      <point x="73" y="17"/>
      <point x="244" y="-119"/>
      <point x="494" y="-119" type="curve" smooth="yes"/>
    </contour>
    <contour>
      <point x="327" y="55"/>
      <point x="269" y="135"/>
      <point x="269" y="215" type="curve" smooth="yes"/>
      <point x="269" y="311"/>
      <point x="332" y="381"/>
      <point x="523" y="381" type="curve" smooth="yes"/>
      <point x="639" y="381"/>
      <point x="742" y="348"/>
      <point x="742" y="228" type="curve" smooth="yes"/>
      <point x="742" y="119"/>
      <point x="664" y="55"/>
      <point x="505" y="55" type="curve" smooth="yes"/>
    </contour>
    <contour>
      <point x="707" y="381"/>
      <point x="875" y="519"/>
      <point x="875" y="818" type="curve" smooth="yes"/>
      <point x="875" y="1143" type="line"/>
      <point x="684" y="1143" type="line"/>
      <point x="684" y="815" type="line" smooth="yes"/>
      <point x="684" y="663"/>
      <point x="615" y="570"/>
      <point x="487" y="570" type="curve" smooth="yes"/>
      <point x="367" y="570"/>
      <point x="308" y="651"/>
      <point x="308" y="780" type="curve" smooth="yes"/>
      <point x="308" y="1143" type="line"/>
      <point x="118" y="1143" type="line"/>
      <point x="118" y="783" type="line" smooth="yes"/>
      <point x="118" y="522"/>
      <point x="287" y="383"/>
      <point x="501" y="382" type="curve" smooth="yes"/>
    </contour>
    <contour>
      <point x="832" y="625" type="line"/>
      <point x="297" y="1155" type="line"/>
      <point x="193" y="1055" type="line"/>
      <point x="728" y="525" type="line"/>
    </contour>
    <contour>
      <point x="1012" y="1104" type="line"/>
      <point x="1012" y="1287" type="line"/>
      <point x="-19" y="1287" type="line"/>
      <point x="-19" y="1104" type="line"/>
    </contour>
    <contour>
      <point x="779" y="1167" type="move" name="top"/>
    </contour>
    <contour>
      <point x="496" y="-79" type="move" name="bottom"/>
    </contour>
    <contour>
      <point x="528" y="1167" type="move" name="topcandra"/>
    </contour>
  </outline>
</glyph>
<glyph name="t_t_va-deva" format="1">
  <advance width="2279"/>
  <outline>
    <contour>
      <point x="-19" y="1287" type="line"/>
      <point x="-19" y="1104" type="line"/>
      <point x="640" y="1104" type="line"/>
      <point x="640" y="1287" type="line"/>
    </contour>
    <contour>
      <point x="576" y="1287" type="line"/>
      <point x="576" y="1104" type="line"/>
      <point x="1231" y="1104" type="line"/>
      <point x="1231" y="1287" type="line"/>
    </contour>
    <contour>
      <point x="207" y="869"/>
      <point x="61" y="764"/>
      <point x="61" y="577" type="curve" smooth="yes"/>
      <point x="61" y="365"/>
      <point x="179" y="131"/>
      <point x="310" y="-38" type="curve"/>
      <point x="474" y="71" type="line"/>
      <point x="321" y="302"/>
      <point x="275" y="439"/>
      <point x="275" y="545" type="curve" smooth="yes"/>
      <point x="275" y="641"/>
      <point x="322" y="672"/>
      <point x="473" y="672" type="curve" smooth="yes"/>
      <point x="619" y="672"/>
      <point x="692" y="632"/>
      <point x="840" y="527" type="curve"/>
      <point x="815" y="760" type="line"/>
      <point x="719" y="836"/>
      <point x="587" y="869"/>
      <point x="437" y="869" type="curve" smooth="yes"/>
    </contour>
    <contour>
      <point x="1014" y="858" type="line" smooth="yes"/>
      <point x="800" y="858"/>
      <point x="656" y="750"/>
      <point x="656" y="566" type="curve" smooth="yes"/>
      <point x="656" y="365"/>
      <point x="774" y="131"/>
      <point x="905" y="-38" type="curve"/>
      <point x="1069" y="71" type="line"/>
      <point x="916" y="302"/>
      <point x="870" y="439"/>
      <point x="870" y="534" type="curve" smooth="yes"/>
      <point x="870" y="633"/>
      <point x="921" y="661"/>
      <point x="1034" y="661" type="curve" smooth="yes"/>
      <point x="1451" y="661" type="line"/>
      <point x="1408" y="858" type="line"/>
    </contour>
    <component base="va-deva" xOffset="1187"/>
  </outline>
</glyph>
<glyph name="two.pnum" format="1">
  <advance width="1045"/>
  <outline>
    <contour>
      <point x="90" y="127" type="curve" name="hr00"/>
      <point x="90" y="0" type="line"/>
      <point x="939" y="0" type="line"/>
      <point x="939" y="187" type="line"/>
      <point x="628" y="187" type="line" smooth="yes"/>
      <point x="563" y="187"/>
      <point x="474" y="180"/>
      <point x="405" y="173" type="curve"/>
      <point x="671" y="458"/>
      <point x="886" y="734"/>
      <point x="886" y="979" type="curve" smooth="yes"/>
      <point x="886" y="1218"/>
      <point x="734" y="1367"/>
      <point x="486" y="1367" type="curve" smooth="yes"/>
      <point x="313" y="1367"/>
      <point x="193" y="1299"/>
      <point x="73" y="1169" type="curve"/>
      <point x="196" y="1047" type="line"/>
      <point x="267" y="1129"/>
      <point x="355" y="1192"/>
      <point x="458" y="1192" type="curve" smooth="yes"/>
      <point x="605" y="1192"/>
      <point x="675" y="1108"/>
      <point x="675" y="967" type="curve" smooth="yes"/>
      <point x="675" y="759"/>
      <point x="456" y="489"/>
    </contour>
  </outline>
</glyph>
<glyph name="two.tnum" format="1">
  <advance width="1042"/>
  <outline>
    <contour>
      <point x="80" y="127" type="curve" name="hr01"/>
      <point x="80" y="0" type="line"/>
      <point x="951" y="0" type="line"/>
      <point x="951" y="187" type="line"/>
      <point x="637" y="187" type="line" smooth="yes"/>
      <point x="573" y="187"/>
      <point x="489" y="180"/>
      <point x="419" y="173" type="curve"/>
      <point x="686" y="424"/>
      <point x="878" y="616"/>
      <point x="878" y="826" type="curve" smooth="yes"/>
      <point x="878" y="1058"/>
      <point x="723" y="1203"/>
      <point x="480" y="1203" type="curve" name="hr02" smooth="yes"/>
      <point x="304" y="1203"/>
      <point x="189" y="1135"/>
      <point x="73" y="1007" type="curve"/>
      <point x="195" y="888" type="line"/>
      <point x="267" y="968"/>
      <point x="348" y="1029"/>
      <point x="454" y="1029" type="curve" smooth="yes"/>
      <point x="593" y="1029"/>
      <point x="667" y="949"/>
      <point x="667" y="818" type="curve" smooth="yes"/>
      <point x="667" y="636"/>
      <point x="446" y="427"/>
    </contour>
  </outline>
</glyph>
<glyph name="uni03020301.cap" format="1">
  <advance width="0"/>
  <outline>
    <contour>
      <point x="-73" y="1811" type="line" name="hr01"/>
      <point x="-253" y="1811" type="line"/>
      <point x="-397" y="1577" type="line" name="hr02"/>
      <point x="-266" y="1577" type="line"/>
    </contour>
    <contour>
      <point x="-505" y="1666" type="line"/>
      <point x="-695" y="1666" type="line"/>
      <point x="-886" y="1443" type="line"/>
      <point x="-725" y="1443" type="line"/>
      <point x="-604" y="1564" type="line"/>
      <point x="-596" y="1564" type="line"/>
      <point x="-475" y="1443" type="line"/>
      <point x="-314" y="1443" type="line"/>
    </contour>
    <contour>
      <point x="-600" y="1386" type="move" name="_mark0"/>
    </contour>
  </outline>
</glyph>
<glyph name="uni03020306.cap" format="1">
  <advance width="0"/>
  <outline>
    <contour>
      <point x="-752" y="1942" type="curve" name="hr00"/>
      <point x="-861" y="1942" type="line"/>
      <point x="-847" y="1819"/>
      <point x="-765" y="1729"/>
      <point x="-600" y="1729" type="curve" smooth="yes"/>
      <point x="-435" y="1729"/>
      <point x="-353" y="1819"/>
      <point x="-339" y="1942" type="curve"/>
      <point x="-448" y="1942" type="line"/>
      <point x="-465" y="1880"/>
      <point x="-505" y="1836"/>
      <point x="-600" y="1836" type="curve" smooth="yes"/>
      <point x="-695" y="1836"/>
      <point x="-735" y="1880"/>
    </contour>
    <contour>
      <point x="-505" y="1666" type="line"/>
      <point x="-695" y="1666" type="line"/>
      <point x="-886" y="1443" type="line"/>
      <point x="-725" y="1443" type="line"/>
      <point x="-604" y="1564" type="line"/>
      <point x="-596" y="1564" type="line"/>
      <point x="-475" y="1443" type="line"/>
      <point x="-314" y="1443" type="line"/>
    </contour>
    <contour>
      <point x="-600" y="1386" type="move" name="_mark0"/>
    </contour>
  </outline>
</glyph>
<glyph name="uni03060309" format="1">
  <advance width="0"/>
  <outline>
    <contour>
      <point x="-679" y="1494" type="curve" name="hr00"/>
      <point x="-661" y="1411" type="line"/>
      <point x="-551" y="1431"/>
      <point x="-451" y="1470"/>
      <point x="-451" y="1588" type="curve" smooth="yes"/>
      <point x="-451" y="1686"/>
      <point x="-537" y="1738"/>
      <point x="-721" y="1743" type="curve"/>
      <point x="-740" y="1643" type="line"/>
      <point x="-639" y="1637"/>
      <point x="-602" y="1613"/>
      <point x="-602" y="1565" type="curve" smooth="yes"/>
      <point x="-602" y="1524"/>
      <point x="-634" y="1506"/>
    </contour>
    <contour>
      <point x="-763" y="1446" type="curve"/>
      <point x="-868" y="1446" type="line"/>
      <point x="-861" y="1315"/>
      <point x="-781" y="1177"/>
      <point x="-600" y="1177" type="curve" smooth="yes"/>
      <point x="-419" y="1177"/>
      <point x="-339" y="1315"/>
      <point x="-332" y="1446" type="curve"/>
      <point x="-437" y="1446" type="line"/>
      <point x="-449" y="1365"/>
      <point x="-501" y="1293"/>
      <point x="-600" y="1293" type="curve" smooth="yes"/>
      <point x="-699" y="1293"/>
      <point x="-751" y="1365"/>
    </contour>
    <contour>
      <point x="-600" y="1048" type="move" name="_mark0"/>
    </contour>
  </outline>
</glyph>
<glyph name="uni03080300.cap" format="1">
  <advance width="0"/>
  <outline>
    <contour>
      <point x="-654" y="1730" type="line" name="hr00"/>
      <point x="-477" y="1730" type="line"/>
      <point x="-653" y="1965" type="line"/>
      <point x="-888" y="1965" type="line"/>
    </contour>
    <contour>
      <point x="-893" y="1560" type="curve" smooth="yes"/>
      <point x="-893" y="1498"/>
      <point x="-847" y="1453"/>
      <point x="-786" y="1453" type="curve" smooth="yes"/>
      <point x="-725" y="1453"/>
      <point x="-681" y="1498"/>
      <point x="-681" y="1560" type="curve" smooth="yes"/>
      <point x="-681" y="1619"/>
      <point x="-725" y="1664"/>
      <point x="-786" y="1664" type="curve" smooth="yes"/>
      <point x="-847" y="1664"/>
      <point x="-893" y="1619"/>
    </contour>
    <contour>
      <point x="-519" y="1560" type="curve" smooth="yes"/>
      <point x="-519" y="1498"/>
      <point x="-475" y="1453"/>
      <point x="-414" y="1453" type="curve" smooth="yes"/>
      <point x="-353" y="1453"/>
      <point x="-307" y="1498"/>
      <point x="-307" y="1560" type="curve" smooth="yes"/>
      <point x="-307" y="1619"/>
      <point x="-353" y="1664"/>
      <point x="-414" y="1664" type="curve" smooth="yes"/>
      <point x="-475" y="1664"/>
      <point x="-519" y="1619"/>
    </contour>
    <contour>
      <point x="-600" y="1386" type="move" name="_mark0"/>
    </contour>
  </outline>
</glyph>
<glyph name="uni0308030C" format="1">
  <advance width="0"/>
  <outline>
    <contour>
      <point x="-720" y="1705" type="line" name="hr00"/>
      <point x="-875" y="1705" type="line"/>
      <point x="-693" y="1488" type="line"/>
      <point x="-507" y="1488" type="line"/>
      <point x="-325" y="1705" type="line"/>
      <point x="-480" y="1705" type="line"/>
      <point x="-596" y="1578" type="line"/>
      <point x="-604" y="1578" type="line"/>
    </contour>
    <contour>
      <point x="-893" y="1295" type="curve" smooth="yes"/>
      <point x="-893" y="1237"/>
      <point x="-847" y="1191"/>
      <point x="-786" y="1191" type="curve" smooth="yes"/>
      <point x="-725" y="1191"/>
      <point x="-681" y="1237"/>
      <point x="-681" y="1295" type="curve" smooth="yes"/>
      <point x="-681" y="1356"/>
      <point x="-725" y="1402"/>
      <point x="-786" y="1402" type="curve" smooth="yes"/>
      <point x="-847" y="1402"/>
      <point x="-893" y="1356"/>
    </contour>
    <contour>
      <point x="-519" y="1295" type="curve" smooth="yes"/>
      <point x="-519" y="1237"/>
      <point x="-475" y="1191"/>
      <point x="-414" y="1191" type="curve" smooth="yes"/>
      <point x="-353" y="1191"/>
      <point x="-307" y="1237"/>
      <point x="-307" y="1295" type="curve" smooth="yes"/>
      <point x="-307" y="1356"/>
      <point x="-353" y="1402"/>
      <point x="-414" y="1402" type="curve" smooth="yes"/>
      <point x="-475" y="1402"/>
      <point x="-519" y="1356"/>
    </contour>
    <contour>
      <point x="-600" y="1048" type="move" name="_mark0"/>
    </contour>
  </outline>
</glyph>
<glyph name="uni0327.cap" format="1">
  <advance width="0"/>
  <outline>
    <contour>
      <point x="-520" y="7" type="line" name="hr00"/>
      <point x="-655" y="7" type="line"/>
      <point x="-737" y="-155" type="line"/>
      <point x="-651" y="-176"/>
      <point x="-611" y="-203"/>
      <point x="-611" y="-249" type="curve" smooth="yes"/>
      <point x="-611" y="-304"/>
      <point x="-684" y="-332"/>
      <point x="-788" y="-344" type="curve"/>
      <point x="-769" y="-442" type="line"/>
      <point x="-599" y="-430"/>
      <point x="-448" y="-372"/>
      <point x="-448" y="-245" type="curve" smooth="yes"/>
      <point x="-448" y="-161"/>
      <point x="-500" y="-120"/>
      <point x="-568" y="-97" type="curve"/>
    </contour>
    <contour>
      <point x="-600" y="0" type="move" name="_mark0"/>
    </contour>
  </outline>
</glyph>
<glyph name="va_ra-deva" format="1">
  <advance width="1091"/>
  <outline>
    <contour>
      <point x="806" y="345" type="line"/>
      <point x="725" y="452" type="line"/>
      <point x="117" y="79" type="line"/>
      <point x="237" y="-74" type="line"/>
    </contour>
    <component base="va-deva"/>
    <contour>
      <point x="815" y="1167" type="move" name="top"/>
    </contour>
    <contour>
      <point x="815" y="27" type="move" name="bottom"/>
    </contour>
    <contour>
      <point x="552" y="1167" type="move" name="topcandra"/>
    </contour>
  </outline>
</glyph>
<glyph name="zero.numr" format="1">
  <advance width="759"/>
  <outline>
    <contour>
      <point x="65" y="943" type="curve" name="hr00" smooth="yes"/>
      <point x="65" y="674"/>
      <point x="193" y="517"/>
      <point x="380" y="517" type="curve" smooth="yes"/>
      <point x="566" y="517"/>
      <point x="696" y="674"/>
      <point x="696" y="943" type="curve" smooth="yes"/>
      <point x="696" y="1212"/>
      <point x="566" y="1365"/>
      <point x="380" y="1365" type="curve" smooth="yes"/>
      <point x="193" y="1365"/>
      <point x="65" y="1212"/>
    </contour>
    <contour>
      <point x="536" y="943" type="curve" smooth="yes"/>
      <point x="536" y="739"/>
      <point x="470" y="646"/>
      <point x="380" y="646" type="curve" smooth="yes"/>
      <point x="288" y="646"/>
      <point x="223" y="739"/>
      <point x="223" y="943" type="curve" smooth="yes"/>
      <point x="223" y="1148"/>
      <point x="288" y="1237"/>
      <point x="380" y="1237" type="curve" smooth="yes"/>
      <point x="470" y="1237"/>
      <point x="536" y="1148"/>
    </contour>
  </outline>
</glyph>
